<mxfile host="app.diagrams.net" agent="Mozilla/5.0 (X11; Linux x86_64) AppleWebKit/537.36 (KHTML, like Gecko) Chrome/135.0.0.0 Safari/537.36" version="26.2.14">
  <diagram name="PÃ¡gina-1" id="d2-93ZYyZYt3RrMfoLrl">
    <mxGraphModel dx="1874" dy="1952" grid="1" gridSize="10" guides="1" tooltips="1" connect="1" arrows="1" fold="1" page="1" pageScale="1" pageWidth="827" pageHeight="1169" math="0" shadow="0">
      <root>
        <mxCell id="0" />
        <mxCell id="1" parent="0" />
        <mxCell id="QBSZ2mpLJ4u34UwG9ziR-1" value="CENTURION-INTERNAL-SYSTEM" style="rounded=1;whiteSpace=wrap;html=1;fontFamily=Poppins;fontSource=https%3A%2F%2Ffonts.googleapis.com%2Fcss%3Ffamily%3DPoppins;fontStyle=1;fontSize=16;fillColor=#647687;strokeColor=#314354;fontColor=#ffffff;" vertex="1" parent="1">
          <mxGeometry x="40" y="500" width="290" height="40" as="geometry" />
        </mxCell>
        <mxCell id="QBSZ2mpLJ4u34UwG9ziR-2" value="FRONTEND" style="rounded=1;whiteSpace=wrap;html=1;fontFamily=Poppins;fontSource=https%3A%2F%2Ffonts.googleapis.com%2Fcss%3Ffamily%3DPoppins;fontStyle=1;fontSize=14;fillColor=#fff2cc;strokeColor=#d6b656;" vertex="1" parent="1">
          <mxGeometry x="380" y="500" width="140" height="40" as="geometry" />
        </mxCell>
        <mxCell id="QBSZ2mpLJ4u34UwG9ziR-3" value="dist" style="rounded=1;whiteSpace=wrap;html=1;fontFamily=Poppins;fontSource=https%3A%2F%2Ffonts.googleapis.com%2Fcss%3Ffamily%3DPoppins;fontStyle=1;fontSize=12;fillColor=#fff2cc;strokeColor=#d6b656;" vertex="1" parent="1">
          <mxGeometry x="571" y="84" width="170" height="40" as="geometry" />
        </mxCell>
        <mxCell id="QBSZ2mpLJ4u34UwG9ziR-4" value="node_modules" style="rounded=1;whiteSpace=wrap;html=1;fontFamily=Poppins;fontSource=https%3A%2F%2Ffonts.googleapis.com%2Fcss%3Ffamily%3DPoppins;fontStyle=1;fontSize=12;fillColor=#fff2cc;strokeColor=#d6b656;" vertex="1" parent="1">
          <mxGeometry x="571" y="143" width="170" height="40" as="geometry" />
        </mxCell>
        <mxCell id="QBSZ2mpLJ4u34UwG9ziR-5" value="public" style="rounded=1;whiteSpace=wrap;html=1;fontFamily=Poppins;fontSource=https%3A%2F%2Ffonts.googleapis.com%2Fcss%3Ffamily%3DPoppins;fontStyle=1;fontSize=12;fillColor=#fff2cc;strokeColor=#d6b656;" vertex="1" parent="1">
          <mxGeometry x="571" y="203" width="170" height="40" as="geometry" />
        </mxCell>
        <mxCell id="QBSZ2mpLJ4u34UwG9ziR-6" value="src" style="rounded=1;whiteSpace=wrap;html=1;fontFamily=Poppins;fontSource=https%3A%2F%2Ffonts.googleapis.com%2Fcss%3Ffamily%3DPoppins;fontStyle=1;fontSize=12;fillColor=#fff2cc;strokeColor=#d6b656;" vertex="1" parent="1">
          <mxGeometry x="571" y="262" width="170" height="42" as="geometry" />
        </mxCell>
        <mxCell id="QBSZ2mpLJ4u34UwG9ziR-7" value=".env" style="rounded=1;whiteSpace=wrap;html=1;fillColor=#b1ddf0;strokeColor=#10739e;fontStyle=1;fontFamily=Poppins;fontSource=https%3A%2F%2Ffonts.googleapis.com%2Fcss%3Ffamily%3DPoppins;" vertex="1" parent="1">
          <mxGeometry x="571" y="324" width="170" height="40" as="geometry" />
        </mxCell>
        <mxCell id="QBSZ2mpLJ4u34UwG9ziR-8" value="index.html" style="rounded=1;whiteSpace=wrap;html=1;fillColor=#b1ddf0;strokeColor=#10739e;fontStyle=1;fontFamily=Poppins;fontSource=https%3A%2F%2Ffonts.googleapis.com%2Fcss%3Ffamily%3DPoppins;" vertex="1" parent="1">
          <mxGeometry x="571" y="383" width="170" height="40" as="geometry" />
        </mxCell>
        <mxCell id="QBSZ2mpLJ4u34UwG9ziR-9" value="package-lock.json" style="rounded=1;whiteSpace=wrap;html=1;fillColor=#b1ddf0;strokeColor=#10739e;fontStyle=1;fontFamily=Poppins;fontSource=https%3A%2F%2Ffonts.googleapis.com%2Fcss%3Ffamily%3DPoppins;" vertex="1" parent="1">
          <mxGeometry x="571" y="442" width="170" height="40" as="geometry" />
        </mxCell>
        <mxCell id="QBSZ2mpLJ4u34UwG9ziR-10" value="package.json" style="rounded=1;whiteSpace=wrap;html=1;fillColor=#b1ddf0;strokeColor=#10739e;fontStyle=1;fontFamily=Poppins;fontSource=https%3A%2F%2Ffonts.googleapis.com%2Fcss%3Ffamily%3DPoppins;" vertex="1" parent="1">
          <mxGeometry x="571" y="501" width="170" height="40" as="geometry" />
        </mxCell>
        <mxCell id="QBSZ2mpLJ4u34UwG9ziR-11" value="postcss.config.js" style="rounded=1;whiteSpace=wrap;html=1;fillColor=#b1ddf0;strokeColor=#10739e;fontStyle=1;fontFamily=Poppins;fontSource=https%3A%2F%2Ffonts.googleapis.com%2Fcss%3Ffamily%3DPoppins;" vertex="1" parent="1">
          <mxGeometry x="571" y="559" width="170" height="40" as="geometry" />
        </mxCell>
        <mxCell id="QBSZ2mpLJ4u34UwG9ziR-12" value="README.md" style="rounded=1;whiteSpace=wrap;html=1;fillColor=#b1ddf0;strokeColor=#10739e;fontStyle=1;fontFamily=Poppins;fontSource=https%3A%2F%2Ffonts.googleapis.com%2Fcss%3Ffamily%3DPoppins;" vertex="1" parent="1">
          <mxGeometry x="571" y="617" width="170" height="40" as="geometry" />
        </mxCell>
        <mxCell id="QBSZ2mpLJ4u34UwG9ziR-13" value="ScriptSQL.SQL" style="rounded=1;whiteSpace=wrap;html=1;fillColor=#b1ddf0;strokeColor=#10739e;fontStyle=1;fontFamily=Poppins;fontSource=https%3A%2F%2Ffonts.googleapis.com%2Fcss%3Ffamily%3DPoppins;" vertex="1" parent="1">
          <mxGeometry x="571" y="675" width="170" height="40" as="geometry" />
        </mxCell>
        <mxCell id="QBSZ2mpLJ4u34UwG9ziR-14" value="tailwind.config.js" style="rounded=1;whiteSpace=wrap;html=1;fillColor=#b1ddf0;strokeColor=#10739e;fontStyle=1;fontFamily=Poppins;fontSource=https%3A%2F%2Ffonts.googleapis.com%2Fcss%3Ffamily%3DPoppins;" vertex="1" parent="1">
          <mxGeometry x="571" y="735" width="170" height="40" as="geometry" />
        </mxCell>
        <mxCell id="QBSZ2mpLJ4u34UwG9ziR-15" value="test.sh" style="rounded=1;whiteSpace=wrap;html=1;fillColor=#b1ddf0;strokeColor=#10739e;fontStyle=1;fontFamily=Poppins;fontSource=https%3A%2F%2Ffonts.googleapis.com%2Fcss%3Ffamily%3DPoppins;" vertex="1" parent="1">
          <mxGeometry x="571" y="795" width="170" height="40" as="geometry" />
        </mxCell>
        <mxCell id="QBSZ2mpLJ4u34UwG9ziR-16" value="VersionHistory.md" style="rounded=1;whiteSpace=wrap;html=1;fillColor=#b1ddf0;strokeColor=#10739e;fontStyle=1;fontFamily=Poppins;fontSource=https%3A%2F%2Ffonts.googleapis.com%2Fcss%3Ffamily%3DPoppins;" vertex="1" parent="1">
          <mxGeometry x="571" y="855" width="170" height="40" as="geometry" />
        </mxCell>
        <mxCell id="QBSZ2mpLJ4u34UwG9ziR-17" value="vite.config.js" style="rounded=1;whiteSpace=wrap;html=1;fillColor=#b1ddf0;strokeColor=#10739e;fontStyle=1;fontFamily=Poppins;fontSource=https%3A%2F%2Ffonts.googleapis.com%2Fcss%3Ffamily%3DPoppins;" vertex="1" parent="1">
          <mxGeometry x="571" y="914" width="170" height="40" as="geometry" />
        </mxCell>
        <mxCell id="QBSZ2mpLJ4u34UwG9ziR-18" value="favicon.ico" style="rounded=1;whiteSpace=wrap;html=1;fillColor=#b1ddf0;strokeColor=#10739e;fontStyle=1;fontFamily=Poppins;fontSource=https%3A%2F%2Ffonts.googleapis.com%2Fcss%3Ffamily%3DPoppins;" vertex="1" parent="1">
          <mxGeometry x="790" y="153" width="170" height="40" as="geometry" />
        </mxCell>
        <mxCell id="QBSZ2mpLJ4u34UwG9ziR-19" value="manifest.json" style="rounded=1;whiteSpace=wrap;html=1;fillColor=#b1ddf0;strokeColor=#10739e;fontStyle=1;fontFamily=Poppins;fontSource=https%3A%2F%2Ffonts.googleapis.com%2Fcss%3Ffamily%3DPoppins;" vertex="1" parent="1">
          <mxGeometry x="790" y="203" width="170" height="40" as="geometry" />
        </mxCell>
        <mxCell id="QBSZ2mpLJ4u34UwG9ziR-20" value="components" style="rounded=1;whiteSpace=wrap;html=1;fontFamily=Poppins;fontSource=https%3A%2F%2Ffonts.googleapis.com%2Fcss%3Ffamily%3DPoppins;fontStyle=1;fontSize=12;fillColor=#b1ddf0;strokeColor=#10739e;" vertex="1" parent="1">
          <mxGeometry x="790" y="263" width="170" height="40" as="geometry" />
        </mxCell>
        <mxCell id="QBSZ2mpLJ4u34UwG9ziR-21" value="img" style="rounded=1;whiteSpace=wrap;html=1;fontFamily=Poppins;fontSource=https%3A%2F%2Ffonts.googleapis.com%2Fcss%3Ffamily%3DPoppins;fontStyle=1;fontSize=12;fillColor=#b1ddf0;strokeColor=#10739e;" vertex="1" parent="1">
          <mxGeometry x="790" y="313" width="170" height="40" as="geometry" />
        </mxCell>
        <mxCell id="QBSZ2mpLJ4u34UwG9ziR-22" value="modules" style="rounded=1;whiteSpace=wrap;html=1;fontFamily=Poppins;fontSource=https%3A%2F%2Ffonts.googleapis.com%2Fcss%3Ffamily%3DPoppins;fontStyle=1;fontSize=12;fillColor=#b1ddf0;strokeColor=#10739e;" vertex="1" parent="1">
          <mxGeometry x="790" y="363" width="170" height="40" as="geometry" />
        </mxCell>
        <mxCell id="QBSZ2mpLJ4u34UwG9ziR-24" value="App.jsx" style="rounded=1;whiteSpace=wrap;html=1;fillColor=#fff2cc;strokeColor=#d6b656;fontStyle=1;fontFamily=Poppins;fontSource=https%3A%2F%2Ffonts.googleapis.com%2Fcss%3Ffamily%3DPoppins;" vertex="1" parent="1">
          <mxGeometry x="790" y="413" width="170" height="40" as="geometry" />
        </mxCell>
        <mxCell id="QBSZ2mpLJ4u34UwG9ziR-25" value="index.css" style="rounded=1;whiteSpace=wrap;html=1;fillColor=#fff2cc;strokeColor=#d6b656;fontStyle=1;fontFamily=Poppins;fontSource=https%3A%2F%2Ffonts.googleapis.com%2Fcss%3Ffamily%3DPoppins;" vertex="1" parent="1">
          <mxGeometry x="790" y="463" width="170" height="40" as="geometry" />
        </mxCell>
        <mxCell id="QBSZ2mpLJ4u34UwG9ziR-26" value="index.jsx" style="rounded=1;whiteSpace=wrap;html=1;fillColor=#fff2cc;strokeColor=#d6b656;fontStyle=1;fontFamily=Poppins;fontSource=https%3A%2F%2Ffonts.googleapis.com%2Fcss%3Ffamily%3DPoppins;" vertex="1" parent="1">
          <mxGeometry x="790" y="513" width="170" height="40" as="geometry" />
        </mxCell>
        <mxCell id="QBSZ2mpLJ4u34UwG9ziR-29" value="" style="endArrow=classic;html=1;rounded=0;exitX=1;exitY=0.5;exitDx=0;exitDy=0;" edge="1" parent="1" source="QBSZ2mpLJ4u34UwG9ziR-1" target="QBSZ2mpLJ4u34UwG9ziR-2">
          <mxGeometry width="50" height="50" relative="1" as="geometry">
            <mxPoint x="390" y="540" as="sourcePoint" />
            <mxPoint x="440" y="490" as="targetPoint" />
          </mxGeometry>
        </mxCell>
        <mxCell id="QBSZ2mpLJ4u34UwG9ziR-30" value="" style="endArrow=classic;html=1;rounded=0;exitX=1;exitY=0.5;exitDx=0;exitDy=0;entryX=0;entryY=0.5;entryDx=0;entryDy=0;edgeStyle=orthogonalEdgeStyle;" edge="1" parent="1" source="QBSZ2mpLJ4u34UwG9ziR-2" target="QBSZ2mpLJ4u34UwG9ziR-3">
          <mxGeometry width="50" height="50" relative="1" as="geometry">
            <mxPoint x="600" y="510" as="sourcePoint" />
            <mxPoint x="650" y="460" as="targetPoint" />
          </mxGeometry>
        </mxCell>
        <mxCell id="QBSZ2mpLJ4u34UwG9ziR-31" value="" style="endArrow=classic;html=1;rounded=0;exitX=1;exitY=0.5;exitDx=0;exitDy=0;entryX=0;entryY=0.5;entryDx=0;entryDy=0;edgeStyle=orthogonalEdgeStyle;" edge="1" parent="1" source="QBSZ2mpLJ4u34UwG9ziR-2" target="QBSZ2mpLJ4u34UwG9ziR-4">
          <mxGeometry width="50" height="50" relative="1" as="geometry">
            <mxPoint x="600" y="510" as="sourcePoint" />
            <mxPoint x="650" y="460" as="targetPoint" />
          </mxGeometry>
        </mxCell>
        <mxCell id="QBSZ2mpLJ4u34UwG9ziR-32" value="" style="endArrow=classic;html=1;rounded=0;exitX=1;exitY=0.5;exitDx=0;exitDy=0;entryX=0;entryY=0.5;entryDx=0;entryDy=0;edgeStyle=orthogonalEdgeStyle;" edge="1" parent="1" source="QBSZ2mpLJ4u34UwG9ziR-2" target="QBSZ2mpLJ4u34UwG9ziR-5">
          <mxGeometry width="50" height="50" relative="1" as="geometry">
            <mxPoint x="600" y="350" as="sourcePoint" />
            <mxPoint x="650" y="300" as="targetPoint" />
          </mxGeometry>
        </mxCell>
        <mxCell id="QBSZ2mpLJ4u34UwG9ziR-34" value="" style="endArrow=classic;html=1;rounded=0;exitX=1;exitY=0.5;exitDx=0;exitDy=0;entryX=0;entryY=0.5;entryDx=0;entryDy=0;edgeStyle=orthogonalEdgeStyle;" edge="1" parent="1" source="QBSZ2mpLJ4u34UwG9ziR-2" target="QBSZ2mpLJ4u34UwG9ziR-6">
          <mxGeometry width="50" height="50" relative="1" as="geometry">
            <mxPoint x="440" y="390" as="sourcePoint" />
            <mxPoint x="490" y="340" as="targetPoint" />
          </mxGeometry>
        </mxCell>
        <mxCell id="QBSZ2mpLJ4u34UwG9ziR-35" value="" style="endArrow=classic;html=1;rounded=0;exitX=1;exitY=0.5;exitDx=0;exitDy=0;entryX=0;entryY=0.5;entryDx=0;entryDy=0;edgeStyle=orthogonalEdgeStyle;" edge="1" parent="1" source="QBSZ2mpLJ4u34UwG9ziR-2" target="QBSZ2mpLJ4u34UwG9ziR-7">
          <mxGeometry width="50" height="50" relative="1" as="geometry">
            <mxPoint x="600" y="350" as="sourcePoint" />
            <mxPoint x="650" y="300" as="targetPoint" />
          </mxGeometry>
        </mxCell>
        <mxCell id="QBSZ2mpLJ4u34UwG9ziR-36" value="" style="endArrow=classic;html=1;rounded=0;exitX=1;exitY=0.5;exitDx=0;exitDy=0;entryX=0;entryY=0.5;entryDx=0;entryDy=0;edgeStyle=orthogonalEdgeStyle;" edge="1" parent="1" source="QBSZ2mpLJ4u34UwG9ziR-2" target="QBSZ2mpLJ4u34UwG9ziR-8">
          <mxGeometry width="50" height="50" relative="1" as="geometry">
            <mxPoint x="600" y="430" as="sourcePoint" />
            <mxPoint x="650" y="380" as="targetPoint" />
          </mxGeometry>
        </mxCell>
        <mxCell id="QBSZ2mpLJ4u34UwG9ziR-37" value="" style="endArrow=classic;html=1;rounded=0;exitX=1;exitY=0.5;exitDx=0;exitDy=0;entryX=0;entryY=0.5;entryDx=0;entryDy=0;edgeStyle=orthogonalEdgeStyle;" edge="1" parent="1" source="QBSZ2mpLJ4u34UwG9ziR-2" target="QBSZ2mpLJ4u34UwG9ziR-9">
          <mxGeometry width="50" height="50" relative="1" as="geometry">
            <mxPoint x="600" y="430" as="sourcePoint" />
            <mxPoint x="560" y="460" as="targetPoint" />
          </mxGeometry>
        </mxCell>
        <mxCell id="QBSZ2mpLJ4u34UwG9ziR-38" value="" style="endArrow=classic;html=1;rounded=0;exitX=1;exitY=0.5;exitDx=0;exitDy=0;" edge="1" parent="1" source="QBSZ2mpLJ4u34UwG9ziR-2" target="QBSZ2mpLJ4u34UwG9ziR-10">
          <mxGeometry width="50" height="50" relative="1" as="geometry">
            <mxPoint x="600" y="510" as="sourcePoint" />
            <mxPoint x="650" y="460" as="targetPoint" />
          </mxGeometry>
        </mxCell>
        <mxCell id="QBSZ2mpLJ4u34UwG9ziR-39" value="" style="endArrow=classic;html=1;rounded=0;exitX=1;exitY=0.5;exitDx=0;exitDy=0;entryX=0;entryY=0.5;entryDx=0;entryDy=0;edgeStyle=orthogonalEdgeStyle;" edge="1" parent="1" source="QBSZ2mpLJ4u34UwG9ziR-2" target="QBSZ2mpLJ4u34UwG9ziR-17">
          <mxGeometry width="50" height="50" relative="1" as="geometry">
            <mxPoint x="600" y="750" as="sourcePoint" />
            <mxPoint x="650" y="700" as="targetPoint" />
          </mxGeometry>
        </mxCell>
        <mxCell id="QBSZ2mpLJ4u34UwG9ziR-40" value="" style="endArrow=classic;html=1;rounded=0;exitX=1;exitY=0.5;exitDx=0;exitDy=0;entryX=0;entryY=0.5;entryDx=0;entryDy=0;edgeStyle=orthogonalEdgeStyle;" edge="1" parent="1" source="QBSZ2mpLJ4u34UwG9ziR-2" target="QBSZ2mpLJ4u34UwG9ziR-16">
          <mxGeometry width="50" height="50" relative="1" as="geometry">
            <mxPoint x="600" y="750" as="sourcePoint" />
            <mxPoint x="650" y="700" as="targetPoint" />
          </mxGeometry>
        </mxCell>
        <mxCell id="QBSZ2mpLJ4u34UwG9ziR-41" value="" style="endArrow=classic;html=1;rounded=0;exitX=1;exitY=0.5;exitDx=0;exitDy=0;entryX=0;entryY=0.5;entryDx=0;entryDy=0;edgeStyle=orthogonalEdgeStyle;" edge="1" parent="1" source="QBSZ2mpLJ4u34UwG9ziR-2" target="QBSZ2mpLJ4u34UwG9ziR-15">
          <mxGeometry width="50" height="50" relative="1" as="geometry">
            <mxPoint x="600" y="750" as="sourcePoint" />
            <mxPoint x="650" y="700" as="targetPoint" />
          </mxGeometry>
        </mxCell>
        <mxCell id="QBSZ2mpLJ4u34UwG9ziR-42" value="" style="endArrow=classic;html=1;rounded=0;exitX=1;exitY=0.5;exitDx=0;exitDy=0;entryX=0;entryY=0.5;entryDx=0;entryDy=0;edgeStyle=orthogonalEdgeStyle;" edge="1" parent="1" source="QBSZ2mpLJ4u34UwG9ziR-2" target="QBSZ2mpLJ4u34UwG9ziR-14">
          <mxGeometry width="50" height="50" relative="1" as="geometry">
            <mxPoint x="600" y="750" as="sourcePoint" />
            <mxPoint x="650" y="700" as="targetPoint" />
          </mxGeometry>
        </mxCell>
        <mxCell id="QBSZ2mpLJ4u34UwG9ziR-43" value="" style="endArrow=classic;html=1;rounded=0;exitX=1;exitY=0.5;exitDx=0;exitDy=0;entryX=0;entryY=0.5;entryDx=0;entryDy=0;edgeStyle=orthogonalEdgeStyle;" edge="1" parent="1" source="QBSZ2mpLJ4u34UwG9ziR-2" target="QBSZ2mpLJ4u34UwG9ziR-13">
          <mxGeometry width="50" height="50" relative="1" as="geometry">
            <mxPoint x="600" y="750" as="sourcePoint" />
            <mxPoint x="650" y="700" as="targetPoint" />
          </mxGeometry>
        </mxCell>
        <mxCell id="QBSZ2mpLJ4u34UwG9ziR-44" value="" style="endArrow=classic;html=1;rounded=0;exitX=1;exitY=0.5;exitDx=0;exitDy=0;entryX=0;entryY=0.5;entryDx=0;entryDy=0;edgeStyle=orthogonalEdgeStyle;" edge="1" parent="1" source="QBSZ2mpLJ4u34UwG9ziR-2" target="QBSZ2mpLJ4u34UwG9ziR-12">
          <mxGeometry width="50" height="50" relative="1" as="geometry">
            <mxPoint x="600" y="750" as="sourcePoint" />
            <mxPoint x="650" y="700" as="targetPoint" />
          </mxGeometry>
        </mxCell>
        <mxCell id="QBSZ2mpLJ4u34UwG9ziR-45" value="" style="endArrow=classic;html=1;rounded=0;exitX=1;exitY=0.5;exitDx=0;exitDy=0;entryX=0;entryY=0.5;entryDx=0;entryDy=0;edgeStyle=orthogonalEdgeStyle;" edge="1" parent="1" source="QBSZ2mpLJ4u34UwG9ziR-2" target="QBSZ2mpLJ4u34UwG9ziR-11">
          <mxGeometry width="50" height="50" relative="1" as="geometry">
            <mxPoint x="600" y="750" as="sourcePoint" />
            <mxPoint x="650" y="700" as="targetPoint" />
          </mxGeometry>
        </mxCell>
        <mxCell id="QBSZ2mpLJ4u34UwG9ziR-46" value="" style="endArrow=classic;html=1;rounded=0;entryX=0;entryY=0.5;entryDx=0;entryDy=0;exitX=1;exitY=0.5;exitDx=0;exitDy=0;" edge="1" parent="1" source="QBSZ2mpLJ4u34UwG9ziR-5" target="QBSZ2mpLJ4u34UwG9ziR-19">
          <mxGeometry width="50" height="50" relative="1" as="geometry">
            <mxPoint x="610" y="280" as="sourcePoint" />
            <mxPoint x="660" y="230" as="targetPoint" />
          </mxGeometry>
        </mxCell>
        <mxCell id="QBSZ2mpLJ4u34UwG9ziR-47" value="" style="endArrow=classic;html=1;rounded=0;entryX=0;entryY=0.5;entryDx=0;entryDy=0;exitX=1;exitY=0.5;exitDx=0;exitDy=0;edgeStyle=orthogonalEdgeStyle;" edge="1" parent="1" source="QBSZ2mpLJ4u34UwG9ziR-5" target="QBSZ2mpLJ4u34UwG9ziR-18">
          <mxGeometry width="50" height="50" relative="1" as="geometry">
            <mxPoint x="610" y="280" as="sourcePoint" />
            <mxPoint x="660" y="230" as="targetPoint" />
          </mxGeometry>
        </mxCell>
        <mxCell id="QBSZ2mpLJ4u34UwG9ziR-48" value="" style="endArrow=classic;html=1;rounded=0;exitX=1;exitY=0.5;exitDx=0;exitDy=0;entryX=0;entryY=0.5;entryDx=0;entryDy=0;" edge="1" parent="1" source="QBSZ2mpLJ4u34UwG9ziR-6" target="QBSZ2mpLJ4u34UwG9ziR-20">
          <mxGeometry width="50" height="50" relative="1" as="geometry">
            <mxPoint x="870" y="360" as="sourcePoint" />
            <mxPoint x="920" y="310" as="targetPoint" />
          </mxGeometry>
        </mxCell>
        <mxCell id="QBSZ2mpLJ4u34UwG9ziR-49" value="" style="endArrow=classic;html=1;rounded=0;exitX=1;exitY=0.5;exitDx=0;exitDy=0;entryX=0;entryY=0.5;entryDx=0;entryDy=0;edgeStyle=orthogonalEdgeStyle;" edge="1" parent="1" source="QBSZ2mpLJ4u34UwG9ziR-6" target="QBSZ2mpLJ4u34UwG9ziR-21">
          <mxGeometry width="50" height="50" relative="1" as="geometry">
            <mxPoint x="870" y="360" as="sourcePoint" />
            <mxPoint x="920" y="310" as="targetPoint" />
          </mxGeometry>
        </mxCell>
        <mxCell id="QBSZ2mpLJ4u34UwG9ziR-50" value="" style="endArrow=classic;html=1;rounded=0;exitX=1;exitY=0.5;exitDx=0;exitDy=0;entryX=0;entryY=0.5;entryDx=0;entryDy=0;edgeStyle=orthogonalEdgeStyle;" edge="1" parent="1" source="QBSZ2mpLJ4u34UwG9ziR-6" target="QBSZ2mpLJ4u34UwG9ziR-22">
          <mxGeometry width="50" height="50" relative="1" as="geometry">
            <mxPoint x="870" y="360" as="sourcePoint" />
            <mxPoint x="920" y="310" as="targetPoint" />
          </mxGeometry>
        </mxCell>
        <mxCell id="QBSZ2mpLJ4u34UwG9ziR-51" value="" style="endArrow=classic;html=1;rounded=0;exitX=1;exitY=0.5;exitDx=0;exitDy=0;entryX=0;entryY=0.5;entryDx=0;entryDy=0;edgeStyle=orthogonalEdgeStyle;" edge="1" parent="1" source="QBSZ2mpLJ4u34UwG9ziR-6" target="QBSZ2mpLJ4u34UwG9ziR-24">
          <mxGeometry width="50" height="50" relative="1" as="geometry">
            <mxPoint x="870" y="360" as="sourcePoint" />
            <mxPoint x="920" y="310" as="targetPoint" />
          </mxGeometry>
        </mxCell>
        <mxCell id="QBSZ2mpLJ4u34UwG9ziR-52" value="" style="endArrow=classic;html=1;rounded=0;exitX=1;exitY=0.5;exitDx=0;exitDy=0;entryX=0;entryY=0.5;entryDx=0;entryDy=0;edgeStyle=orthogonalEdgeStyle;" edge="1" parent="1" source="QBSZ2mpLJ4u34UwG9ziR-6" target="QBSZ2mpLJ4u34UwG9ziR-25">
          <mxGeometry width="50" height="50" relative="1" as="geometry">
            <mxPoint x="870" y="360" as="sourcePoint" />
            <mxPoint x="920" y="310" as="targetPoint" />
          </mxGeometry>
        </mxCell>
        <mxCell id="QBSZ2mpLJ4u34UwG9ziR-53" value="" style="endArrow=classic;html=1;rounded=0;exitX=1;exitY=0.5;exitDx=0;exitDy=0;entryX=0;entryY=0.5;entryDx=0;entryDy=0;edgeStyle=orthogonalEdgeStyle;" edge="1" parent="1" source="QBSZ2mpLJ4u34UwG9ziR-6" target="QBSZ2mpLJ4u34UwG9ziR-26">
          <mxGeometry width="50" height="50" relative="1" as="geometry">
            <mxPoint x="870" y="360" as="sourcePoint" />
            <mxPoint x="920" y="310" as="targetPoint" />
          </mxGeometry>
        </mxCell>
        <mxCell id="QBSZ2mpLJ4u34UwG9ziR-54" value="chatbot" style="rounded=1;whiteSpace=wrap;html=1;fontFamily=Poppins;fontSource=https%3A%2F%2Ffonts.googleapis.com%2Fcss%3Ffamily%3DPoppins;fontStyle=1;fontSize=12;fillColor=#b1ddf0;strokeColor=#10739e;" vertex="1" parent="1">
          <mxGeometry x="1014" y="-305" width="170" height="40" as="geometry" />
        </mxCell>
        <mxCell id="QBSZ2mpLJ4u34UwG9ziR-55" value="contextMenu" style="rounded=1;whiteSpace=wrap;html=1;fontFamily=Poppins;fontSource=https%3A%2F%2Ffonts.googleapis.com%2Fcss%3Ffamily%3DPoppins;fontStyle=1;fontSize=12;fillColor=#b1ddf0;strokeColor=#10739e;" vertex="1" parent="1">
          <mxGeometry x="1014" y="-253" width="170" height="40" as="geometry" />
        </mxCell>
        <mxCell id="QBSZ2mpLJ4u34UwG9ziR-56" value="layout" style="rounded=1;whiteSpace=wrap;html=1;fontFamily=Poppins;fontSource=https%3A%2F%2Ffonts.googleapis.com%2Fcss%3Ffamily%3DPoppins;fontStyle=1;fontSize=12;fillColor=#b1ddf0;strokeColor=#10739e;" vertex="1" parent="1">
          <mxGeometry x="1014" y="-202" width="170" height="40" as="geometry" />
        </mxCell>
        <mxCell id="QBSZ2mpLJ4u34UwG9ziR-57" value="toolbar" style="rounded=1;whiteSpace=wrap;html=1;fontFamily=Poppins;fontSource=https%3A%2F%2Ffonts.googleapis.com%2Fcss%3Ffamily%3DPoppins;fontStyle=1;fontSize=12;fillColor=#b1ddf0;strokeColor=#10739e;" vertex="1" parent="1">
          <mxGeometry x="1014" y="-151" width="170" height="40" as="geometry" />
        </mxCell>
        <mxCell id="QBSZ2mpLJ4u34UwG9ziR-58" value="ConfirmDialog.jsx" style="rounded=1;whiteSpace=wrap;html=1;fillColor=#fff2cc;strokeColor=#d6b656;fontStyle=1;fontFamily=Poppins;fontSource=https%3A%2F%2Ffonts.googleapis.com%2Fcss%3Ffamily%3DPoppins;" vertex="1" parent="1">
          <mxGeometry x="1014" y="-99" width="170" height="40" as="geometry" />
        </mxCell>
        <mxCell id="QBSZ2mpLJ4u34UwG9ziR-59" value="Icons.js" style="rounded=1;whiteSpace=wrap;html=1;fillColor=#fff2cc;strokeColor=#d6b656;fontStyle=1;fontFamily=Poppins;fontSource=https%3A%2F%2Ffonts.googleapis.com%2Fcss%3Ffamily%3DPoppins;" vertex="1" parent="1">
          <mxGeometry x="1014" y="-47" width="170" height="40" as="geometry" />
        </mxCell>
        <mxCell id="QBSZ2mpLJ4u34UwG9ziR-60" value="Images.js" style="rounded=1;whiteSpace=wrap;html=1;fillColor=#fff2cc;strokeColor=#d6b656;fontStyle=1;fontFamily=Poppins;fontSource=https%3A%2F%2Ffonts.googleapis.com%2Fcss%3Ffamily%3DPoppins;" vertex="1" parent="1">
          <mxGeometry x="1014" y="5" width="170" height="40" as="geometry" />
        </mxCell>
        <mxCell id="QBSZ2mpLJ4u34UwG9ziR-61" value="LoadingOverlay.jsx" style="rounded=1;whiteSpace=wrap;html=1;fillColor=#fff2cc;strokeColor=#d6b656;fontStyle=1;fontFamily=Poppins;fontSource=https%3A%2F%2Ffonts.googleapis.com%2Fcss%3Ffamily%3DPoppins;" vertex="1" parent="1">
          <mxGeometry x="1014" y="56" width="170" height="40" as="geometry" />
        </mxCell>
        <mxCell id="QBSZ2mpLJ4u34UwG9ziR-62" value="MessageAlert.jsx" style="rounded=1;whiteSpace=wrap;html=1;fillColor=#fff2cc;strokeColor=#d6b656;fontStyle=1;fontFamily=Poppins;fontSource=https%3A%2F%2Ffonts.googleapis.com%2Fcss%3Ffamily%3DPoppins;" vertex="1" parent="1">
          <mxGeometry x="1014" y="107.5" width="170" height="40" as="geometry" />
        </mxCell>
        <mxCell id="QBSZ2mpLJ4u34UwG9ziR-63" value="ProtectedRoute.jsx" style="rounded=1;whiteSpace=wrap;html=1;fillColor=#fff2cc;strokeColor=#d6b656;fontStyle=1;fontFamily=Poppins;fontSource=https%3A%2F%2Ffonts.googleapis.com%2Fcss%3Ffamily%3DPoppins;" vertex="1" parent="1">
          <mxGeometry x="1014" y="159" width="170" height="40" as="geometry" />
        </mxCell>
        <mxCell id="QBSZ2mpLJ4u34UwG9ziR-64" value="RequestContext.jsx" style="rounded=1;whiteSpace=wrap;html=1;fillColor=#fff2cc;strokeColor=#d6b656;fontStyle=1;fontFamily=Poppins;fontSource=https%3A%2F%2Ffonts.googleapis.com%2Fcss%3Ffamily%3DPoppins;" vertex="1" parent="1">
          <mxGeometry x="1014" y="212" width="170" height="40" as="geometry" />
        </mxCell>
        <mxCell id="QBSZ2mpLJ4u34UwG9ziR-65" value="RequiredField.jsx" style="rounded=1;whiteSpace=wrap;html=1;fillColor=#fff2cc;strokeColor=#d6b656;fontStyle=1;fontFamily=Poppins;fontSource=https%3A%2F%2Ffonts.googleapis.com%2Fcss%3Ffamily%3DPoppins;" vertex="1" parent="1">
          <mxGeometry x="1014" y="263" width="170" height="40" as="geometry" />
        </mxCell>
        <mxCell id="QBSZ2mpLJ4u34UwG9ziR-66" value="" style="endArrow=classic;html=1;rounded=0;exitX=1;exitY=0.5;exitDx=0;exitDy=0;entryX=0;entryY=0.5;entryDx=0;entryDy=0;" edge="1" parent="1" source="QBSZ2mpLJ4u34UwG9ziR-20" target="QBSZ2mpLJ4u34UwG9ziR-65">
          <mxGeometry width="50" height="50" relative="1" as="geometry">
            <mxPoint x="1140" y="90" as="sourcePoint" />
            <mxPoint x="1190" y="40" as="targetPoint" />
          </mxGeometry>
        </mxCell>
        <mxCell id="QBSZ2mpLJ4u34UwG9ziR-67" value="" style="endArrow=classic;html=1;rounded=0;exitX=1;exitY=0.5;exitDx=0;exitDy=0;entryX=0;entryY=0.5;entryDx=0;entryDy=0;edgeStyle=orthogonalEdgeStyle;" edge="1" parent="1" source="QBSZ2mpLJ4u34UwG9ziR-20" target="QBSZ2mpLJ4u34UwG9ziR-64">
          <mxGeometry width="50" height="50" relative="1" as="geometry">
            <mxPoint x="1140" y="180" as="sourcePoint" />
            <mxPoint x="1190" y="130" as="targetPoint" />
          </mxGeometry>
        </mxCell>
        <mxCell id="QBSZ2mpLJ4u34UwG9ziR-68" value="" style="endArrow=classic;html=1;rounded=0;exitX=1;exitY=0.5;exitDx=0;exitDy=0;entryX=0;entryY=0.5;entryDx=0;entryDy=0;edgeStyle=orthogonalEdgeStyle;" edge="1" parent="1" source="QBSZ2mpLJ4u34UwG9ziR-20" target="QBSZ2mpLJ4u34UwG9ziR-63">
          <mxGeometry width="50" height="50" relative="1" as="geometry">
            <mxPoint x="1140" y="190" as="sourcePoint" />
            <mxPoint x="1190" y="140" as="targetPoint" />
          </mxGeometry>
        </mxCell>
        <mxCell id="QBSZ2mpLJ4u34UwG9ziR-69" value="" style="endArrow=classic;html=1;rounded=0;exitX=1;exitY=0.5;exitDx=0;exitDy=0;entryX=0;entryY=0.5;entryDx=0;entryDy=0;edgeStyle=orthogonalEdgeStyle;" edge="1" parent="1" source="QBSZ2mpLJ4u34UwG9ziR-20" target="QBSZ2mpLJ4u34UwG9ziR-62">
          <mxGeometry width="50" height="50" relative="1" as="geometry">
            <mxPoint x="1140" y="190" as="sourcePoint" />
            <mxPoint x="1190" y="140" as="targetPoint" />
          </mxGeometry>
        </mxCell>
        <mxCell id="QBSZ2mpLJ4u34UwG9ziR-70" value="" style="endArrow=classic;html=1;rounded=0;exitX=1;exitY=0.5;exitDx=0;exitDy=0;entryX=0;entryY=0.5;entryDx=0;entryDy=0;edgeStyle=orthogonalEdgeStyle;" edge="1" parent="1" source="QBSZ2mpLJ4u34UwG9ziR-20" target="QBSZ2mpLJ4u34UwG9ziR-61">
          <mxGeometry width="50" height="50" relative="1" as="geometry">
            <mxPoint x="1140" y="190" as="sourcePoint" />
            <mxPoint x="1190" y="140" as="targetPoint" />
          </mxGeometry>
        </mxCell>
        <mxCell id="QBSZ2mpLJ4u34UwG9ziR-71" value="" style="endArrow=classic;html=1;rounded=0;exitX=1;exitY=0.5;exitDx=0;exitDy=0;entryX=0;entryY=0.5;entryDx=0;entryDy=0;edgeStyle=orthogonalEdgeStyle;" edge="1" parent="1" source="QBSZ2mpLJ4u34UwG9ziR-20" target="QBSZ2mpLJ4u34UwG9ziR-60">
          <mxGeometry width="50" height="50" relative="1" as="geometry">
            <mxPoint x="1140" y="190" as="sourcePoint" />
            <mxPoint x="1190" y="140" as="targetPoint" />
          </mxGeometry>
        </mxCell>
        <mxCell id="QBSZ2mpLJ4u34UwG9ziR-72" value="" style="endArrow=classic;html=1;rounded=0;exitX=1;exitY=0.5;exitDx=0;exitDy=0;entryX=0;entryY=0.5;entryDx=0;entryDy=0;edgeStyle=orthogonalEdgeStyle;" edge="1" parent="1" source="QBSZ2mpLJ4u34UwG9ziR-20" target="QBSZ2mpLJ4u34UwG9ziR-59">
          <mxGeometry width="50" height="50" relative="1" as="geometry">
            <mxPoint x="1140" y="90" as="sourcePoint" />
            <mxPoint x="1190" y="40" as="targetPoint" />
          </mxGeometry>
        </mxCell>
        <mxCell id="QBSZ2mpLJ4u34UwG9ziR-73" value="" style="endArrow=classic;html=1;rounded=0;exitX=1;exitY=0.5;exitDx=0;exitDy=0;entryX=0;entryY=0.5;entryDx=0;entryDy=0;edgeStyle=orthogonalEdgeStyle;" edge="1" parent="1" source="QBSZ2mpLJ4u34UwG9ziR-20" target="QBSZ2mpLJ4u34UwG9ziR-58">
          <mxGeometry width="50" height="50" relative="1" as="geometry">
            <mxPoint x="1140" y="90" as="sourcePoint" />
            <mxPoint x="1190" y="40" as="targetPoint" />
          </mxGeometry>
        </mxCell>
        <mxCell id="QBSZ2mpLJ4u34UwG9ziR-74" value="" style="endArrow=classic;html=1;rounded=0;exitX=1;exitY=0.5;exitDx=0;exitDy=0;entryX=0;entryY=0.5;entryDx=0;entryDy=0;edgeStyle=orthogonalEdgeStyle;" edge="1" parent="1" source="QBSZ2mpLJ4u34UwG9ziR-20" target="QBSZ2mpLJ4u34UwG9ziR-57">
          <mxGeometry width="50" height="50" relative="1" as="geometry">
            <mxPoint x="1140" y="90" as="sourcePoint" />
            <mxPoint x="1190" y="40" as="targetPoint" />
          </mxGeometry>
        </mxCell>
        <mxCell id="QBSZ2mpLJ4u34UwG9ziR-75" value="" style="endArrow=classic;html=1;rounded=0;exitX=1;exitY=0.5;exitDx=0;exitDy=0;entryX=0;entryY=0.5;entryDx=0;entryDy=0;edgeStyle=orthogonalEdgeStyle;" edge="1" parent="1" source="QBSZ2mpLJ4u34UwG9ziR-20" target="QBSZ2mpLJ4u34UwG9ziR-56">
          <mxGeometry width="50" height="50" relative="1" as="geometry">
            <mxPoint x="1140" y="90" as="sourcePoint" />
            <mxPoint x="1190" y="40" as="targetPoint" />
          </mxGeometry>
        </mxCell>
        <mxCell id="QBSZ2mpLJ4u34UwG9ziR-76" value="" style="endArrow=classic;html=1;rounded=0;exitX=1;exitY=0.5;exitDx=0;exitDy=0;entryX=0;entryY=0.5;entryDx=0;entryDy=0;edgeStyle=orthogonalEdgeStyle;" edge="1" parent="1" source="QBSZ2mpLJ4u34UwG9ziR-20" target="QBSZ2mpLJ4u34UwG9ziR-55">
          <mxGeometry width="50" height="50" relative="1" as="geometry">
            <mxPoint x="1140" y="90" as="sourcePoint" />
            <mxPoint x="1190" y="40" as="targetPoint" />
          </mxGeometry>
        </mxCell>
        <mxCell id="QBSZ2mpLJ4u34UwG9ziR-77" value="" style="endArrow=classic;html=1;rounded=0;exitX=1;exitY=0.5;exitDx=0;exitDy=0;entryX=0;entryY=0.5;entryDx=0;entryDy=0;edgeStyle=orthogonalEdgeStyle;" edge="1" parent="1" source="QBSZ2mpLJ4u34UwG9ziR-20" target="QBSZ2mpLJ4u34UwG9ziR-54">
          <mxGeometry width="50" height="50" relative="1" as="geometry">
            <mxPoint x="1140" y="-10" as="sourcePoint" />
            <mxPoint x="1190" y="-60" as="targetPoint" />
          </mxGeometry>
        </mxCell>
        <mxCell id="QBSZ2mpLJ4u34UwG9ziR-78" value="TrafficLight_Logo.png" style="rounded=1;whiteSpace=wrap;html=1;fillColor=#fff2cc;strokeColor=#d6b656;fontStyle=1;fontFamily=Poppins;fontSource=https%3A%2F%2Ffonts.googleapis.com%2Fcss%3Ffamily%3DPoppins;" vertex="1" parent="1">
          <mxGeometry x="1014" y="313" width="170" height="40" as="geometry" />
        </mxCell>
        <mxCell id="QBSZ2mpLJ4u34UwG9ziR-79" value="" style="endArrow=classic;html=1;rounded=0;exitX=1;exitY=0.5;exitDx=0;exitDy=0;entryX=0;entryY=0.5;entryDx=0;entryDy=0;" edge="1" parent="1" source="QBSZ2mpLJ4u34UwG9ziR-21" target="QBSZ2mpLJ4u34UwG9ziR-78">
          <mxGeometry width="50" height="50" relative="1" as="geometry">
            <mxPoint x="1060" y="470" as="sourcePoint" />
            <mxPoint x="1110" y="420" as="targetPoint" />
          </mxGeometry>
        </mxCell>
        <mxCell id="QBSZ2mpLJ4u34UwG9ziR-80" value="administration" style="rounded=1;whiteSpace=wrap;html=1;fontFamily=Poppins;fontSource=https%3A%2F%2Ffonts.googleapis.com%2Fcss%3Ffamily%3DPoppins;fontStyle=1;fontSize=12;fillColor=#b1ddf0;strokeColor=#10739e;" vertex="1" parent="1">
          <mxGeometry x="1014" y="363" width="170" height="40" as="geometry" />
        </mxCell>
        <mxCell id="QBSZ2mpLJ4u34UwG9ziR-81" value="cabinets" style="rounded=1;whiteSpace=wrap;html=1;fontFamily=Poppins;fontSource=https%3A%2F%2Ffonts.googleapis.com%2Fcss%3Ffamily%3DPoppins;fontStyle=1;fontSize=12;fillColor=#b1ddf0;strokeColor=#10739e;" vertex="1" parent="1">
          <mxGeometry x="1014" y="414" width="170" height="40" as="geometry" />
        </mxCell>
        <mxCell id="QBSZ2mpLJ4u34UwG9ziR-82" value="cards" style="rounded=1;whiteSpace=wrap;html=1;fontFamily=Poppins;fontSource=https%3A%2F%2Ffonts.googleapis.com%2Fcss%3Ffamily%3DPoppins;fontStyle=1;fontSize=12;fillColor=#b1ddf0;strokeColor=#10739e;" vertex="1" parent="1">
          <mxGeometry x="1014" y="466" width="170" height="40" as="geometry" />
        </mxCell>
        <mxCell id="QBSZ2mpLJ4u34UwG9ziR-83" value="cities" style="rounded=1;whiteSpace=wrap;html=1;fontFamily=Poppins;fontSource=https%3A%2F%2Ffonts.googleapis.com%2Fcss%3Ffamily%3DPoppins;fontStyle=1;fontSize=12;fillColor=#b1ddf0;strokeColor=#10739e;" vertex="1" parent="1">
          <mxGeometry x="1014" y="518" width="170" height="40" as="geometry" />
        </mxCell>
        <mxCell id="QBSZ2mpLJ4u34UwG9ziR-84" value="controllers" style="rounded=1;whiteSpace=wrap;html=1;fontFamily=Poppins;fontSource=https%3A%2F%2Ffonts.googleapis.com%2Fcss%3Ffamily%3DPoppins;fontStyle=1;fontSize=12;fillColor=#b1ddf0;strokeColor=#10739e;" vertex="1" parent="1">
          <mxGeometry x="1014" y="570" width="170" height="40" as="geometry" />
        </mxCell>
        <mxCell id="QBSZ2mpLJ4u34UwG9ziR-85" value="database" style="rounded=1;whiteSpace=wrap;html=1;fontFamily=Poppins;fontSource=https%3A%2F%2Ffonts.googleapis.com%2Fcss%3Ffamily%3DPoppins;fontStyle=1;fontSize=12;fillColor=#b1ddf0;strokeColor=#10739e;" vertex="1" parent="1">
          <mxGeometry x="1014" y="622" width="170" height="40" as="geometry" />
        </mxCell>
        <mxCell id="QBSZ2mpLJ4u34UwG9ziR-86" value="domains" style="rounded=1;whiteSpace=wrap;html=1;fontFamily=Poppins;fontSource=https%3A%2F%2Ffonts.googleapis.com%2Fcss%3Ffamily%3DPoppins;fontStyle=1;fontSize=12;fillColor=#b1ddf0;strokeColor=#10739e;" vertex="1" parent="1">
          <mxGeometry x="1014" y="674" width="170" height="40" as="geometry" />
        </mxCell>
        <mxCell id="QBSZ2mpLJ4u34UwG9ziR-87" value="inventory" style="rounded=1;whiteSpace=wrap;html=1;fontFamily=Poppins;fontSource=https%3A%2F%2Ffonts.googleapis.com%2Fcss%3Ffamily%3DPoppins;fontStyle=1;fontSize=12;fillColor=#b1ddf0;strokeColor=#10739e;" vertex="1" parent="1">
          <mxGeometry x="1014" y="726" width="170" height="40" as="geometry" />
        </mxCell>
        <mxCell id="QBSZ2mpLJ4u34UwG9ziR-88" value="login" style="rounded=1;whiteSpace=wrap;html=1;fontFamily=Poppins;fontSource=https%3A%2F%2Ffonts.googleapis.com%2Fcss%3Ffamily%3DPoppins;fontStyle=1;fontSize=12;fillColor=#b1ddf0;strokeColor=#10739e;" vertex="1" parent="1">
          <mxGeometry x="1014" y="779" width="170" height="40" as="geometry" />
        </mxCell>
        <mxCell id="QBSZ2mpLJ4u34UwG9ziR-89" value="profile" style="rounded=1;whiteSpace=wrap;html=1;fontFamily=Poppins;fontSource=https%3A%2F%2Ffonts.googleapis.com%2Fcss%3Ffamily%3DPoppins;fontStyle=1;fontSize=12;fillColor=#b1ddf0;strokeColor=#10739e;" vertex="1" parent="1">
          <mxGeometry x="1014" y="832" width="170" height="40" as="geometry" />
        </mxCell>
        <mxCell id="QBSZ2mpLJ4u34UwG9ziR-90" value="programming" style="rounded=1;whiteSpace=wrap;html=1;fontFamily=Poppins;fontSource=https%3A%2F%2Ffonts.googleapis.com%2Fcss%3Ffamily%3DPoppins;fontStyle=1;fontSize=12;fillColor=#b1ddf0;strokeColor=#10739e;" vertex="1" parent="1">
          <mxGeometry x="1014" y="886" width="170" height="40" as="geometry" />
        </mxCell>
        <mxCell id="QBSZ2mpLJ4u34UwG9ziR-91" value="projects" style="rounded=1;whiteSpace=wrap;html=1;fontFamily=Poppins;fontSource=https%3A%2F%2Ffonts.googleapis.com%2Fcss%3Ffamily%3DPoppins;fontStyle=1;fontSize=12;fillColor=#b1ddf0;strokeColor=#10739e;" vertex="1" parent="1">
          <mxGeometry x="1014" y="939" width="170" height="40" as="geometry" />
        </mxCell>
        <mxCell id="QBSZ2mpLJ4u34UwG9ziR-92" value="registration" style="rounded=1;whiteSpace=wrap;html=1;fontFamily=Poppins;fontSource=https%3A%2F%2Ffonts.googleapis.com%2Fcss%3Ffamily%3DPoppins;fontStyle=1;fontSize=12;fillColor=#b1ddf0;strokeColor=#10739e;" vertex="1" parent="1">
          <mxGeometry x="1014" y="992" width="170" height="40" as="geometry" />
        </mxCell>
        <mxCell id="QBSZ2mpLJ4u34UwG9ziR-93" value="roles" style="rounded=1;whiteSpace=wrap;html=1;fontFamily=Poppins;fontSource=https%3A%2F%2Ffonts.googleapis.com%2Fcss%3Ffamily%3DPoppins;fontStyle=1;fontSize=12;fillColor=#b1ddf0;strokeColor=#10739e;" vertex="1" parent="1">
          <mxGeometry x="1014" y="1046" width="170" height="40" as="geometry" />
        </mxCell>
        <mxCell id="QBSZ2mpLJ4u34UwG9ziR-94" value="routers" style="rounded=1;whiteSpace=wrap;html=1;fontFamily=Poppins;fontSource=https%3A%2F%2Ffonts.googleapis.com%2Fcss%3Ffamily%3DPoppins;fontStyle=1;fontSize=12;fillColor=#b1ddf0;strokeColor=#10739e;" vertex="1" parent="1">
          <mxGeometry x="1014" y="1100" width="170" height="40" as="geometry" />
        </mxCell>
        <mxCell id="QBSZ2mpLJ4u34UwG9ziR-95" value="token" style="rounded=1;whiteSpace=wrap;html=1;fontFamily=Poppins;fontSource=https%3A%2F%2Ffonts.googleapis.com%2Fcss%3Ffamily%3DPoppins;fontStyle=1;fontSize=12;fillColor=#b1ddf0;strokeColor=#10739e;" vertex="1" parent="1">
          <mxGeometry x="1014" y="1153" width="170" height="40" as="geometry" />
        </mxCell>
        <mxCell id="QBSZ2mpLJ4u34UwG9ziR-96" value="users" style="rounded=1;whiteSpace=wrap;html=1;fontFamily=Poppins;fontSource=https%3A%2F%2Ffonts.googleapis.com%2Fcss%3Ffamily%3DPoppins;fontStyle=1;fontSize=12;fillColor=#b1ddf0;strokeColor=#10739e;" vertex="1" parent="1">
          <mxGeometry x="1014" y="1207" width="170" height="40" as="geometry" />
        </mxCell>
        <mxCell id="QBSZ2mpLJ4u34UwG9ziR-97" value="versions" style="rounded=1;whiteSpace=wrap;html=1;fontFamily=Poppins;fontSource=https%3A%2F%2Ffonts.googleapis.com%2Fcss%3Ffamily%3DPoppins;fontStyle=1;fontSize=12;fillColor=#b1ddf0;strokeColor=#10739e;" vertex="1" parent="1">
          <mxGeometry x="1014" y="1261" width="170" height="40" as="geometry" />
        </mxCell>
        <mxCell id="QBSZ2mpLJ4u34UwG9ziR-98" value="" style="endArrow=classic;html=1;rounded=0;exitX=1;exitY=0.5;exitDx=0;exitDy=0;entryX=0;entryY=0.5;entryDx=0;entryDy=0;" edge="1" parent="1" source="QBSZ2mpLJ4u34UwG9ziR-22" target="QBSZ2mpLJ4u34UwG9ziR-80">
          <mxGeometry width="50" height="50" relative="1" as="geometry">
            <mxPoint x="1060" y="560" as="sourcePoint" />
            <mxPoint x="1110" y="510" as="targetPoint" />
          </mxGeometry>
        </mxCell>
        <mxCell id="QBSZ2mpLJ4u34UwG9ziR-99" value="" style="endArrow=classic;html=1;rounded=0;exitX=1;exitY=0.5;exitDx=0;exitDy=0;entryX=0;entryY=0.5;entryDx=0;entryDy=0;edgeStyle=orthogonalEdgeStyle;" edge="1" parent="1" source="QBSZ2mpLJ4u34UwG9ziR-22" target="QBSZ2mpLJ4u34UwG9ziR-81">
          <mxGeometry width="50" height="50" relative="1" as="geometry">
            <mxPoint x="1060" y="560" as="sourcePoint" />
            <mxPoint x="1110" y="510" as="targetPoint" />
          </mxGeometry>
        </mxCell>
        <mxCell id="QBSZ2mpLJ4u34UwG9ziR-100" value="" style="endArrow=classic;html=1;rounded=0;exitX=1;exitY=0.5;exitDx=0;exitDy=0;entryX=0;entryY=0.5;entryDx=0;entryDy=0;edgeStyle=orthogonalEdgeStyle;" edge="1" parent="1" source="QBSZ2mpLJ4u34UwG9ziR-22" target="QBSZ2mpLJ4u34UwG9ziR-82">
          <mxGeometry width="50" height="50" relative="1" as="geometry">
            <mxPoint x="1060" y="560" as="sourcePoint" />
            <mxPoint x="1110" y="510" as="targetPoint" />
          </mxGeometry>
        </mxCell>
        <mxCell id="QBSZ2mpLJ4u34UwG9ziR-101" value="" style="endArrow=classic;html=1;rounded=0;exitX=1;exitY=0.5;exitDx=0;exitDy=0;entryX=0;entryY=0.5;entryDx=0;entryDy=0;edgeStyle=orthogonalEdgeStyle;" edge="1" parent="1" source="QBSZ2mpLJ4u34UwG9ziR-22" target="QBSZ2mpLJ4u34UwG9ziR-83">
          <mxGeometry width="50" height="50" relative="1" as="geometry">
            <mxPoint x="1060" y="560" as="sourcePoint" />
            <mxPoint x="1110" y="510" as="targetPoint" />
          </mxGeometry>
        </mxCell>
        <mxCell id="QBSZ2mpLJ4u34UwG9ziR-102" value="" style="endArrow=classic;html=1;rounded=0;exitX=1;exitY=0.5;exitDx=0;exitDy=0;entryX=0;entryY=0.5;entryDx=0;entryDy=0;edgeStyle=orthogonalEdgeStyle;" edge="1" parent="1" source="QBSZ2mpLJ4u34UwG9ziR-22" target="QBSZ2mpLJ4u34UwG9ziR-84">
          <mxGeometry width="50" height="50" relative="1" as="geometry">
            <mxPoint x="1060" y="560" as="sourcePoint" />
            <mxPoint x="1110" y="510" as="targetPoint" />
          </mxGeometry>
        </mxCell>
        <mxCell id="QBSZ2mpLJ4u34UwG9ziR-103" value="" style="endArrow=classic;html=1;rounded=0;exitX=1;exitY=0.5;exitDx=0;exitDy=0;entryX=0;entryY=0.5;entryDx=0;entryDy=0;edgeStyle=orthogonalEdgeStyle;" edge="1" parent="1" source="QBSZ2mpLJ4u34UwG9ziR-22" target="QBSZ2mpLJ4u34UwG9ziR-85">
          <mxGeometry width="50" height="50" relative="1" as="geometry">
            <mxPoint x="1060" y="560" as="sourcePoint" />
            <mxPoint x="1110" y="510" as="targetPoint" />
          </mxGeometry>
        </mxCell>
        <mxCell id="QBSZ2mpLJ4u34UwG9ziR-104" value="" style="endArrow=classic;html=1;rounded=0;exitX=1;exitY=0.5;exitDx=0;exitDy=0;entryX=0;entryY=0.5;entryDx=0;entryDy=0;edgeStyle=orthogonalEdgeStyle;" edge="1" parent="1" source="QBSZ2mpLJ4u34UwG9ziR-22" target="QBSZ2mpLJ4u34UwG9ziR-86">
          <mxGeometry width="50" height="50" relative="1" as="geometry">
            <mxPoint x="1060" y="660" as="sourcePoint" />
            <mxPoint x="1110" y="610" as="targetPoint" />
          </mxGeometry>
        </mxCell>
        <mxCell id="QBSZ2mpLJ4u34UwG9ziR-105" value="" style="endArrow=classic;html=1;rounded=0;exitX=1;exitY=0.5;exitDx=0;exitDy=0;entryX=0;entryY=0.5;entryDx=0;entryDy=0;edgeStyle=orthogonalEdgeStyle;" edge="1" parent="1" source="QBSZ2mpLJ4u34UwG9ziR-22" target="QBSZ2mpLJ4u34UwG9ziR-87">
          <mxGeometry width="50" height="50" relative="1" as="geometry">
            <mxPoint x="1060" y="660" as="sourcePoint" />
            <mxPoint x="1110" y="610" as="targetPoint" />
          </mxGeometry>
        </mxCell>
        <mxCell id="QBSZ2mpLJ4u34UwG9ziR-106" value="" style="endArrow=classic;html=1;rounded=0;exitX=1;exitY=0.5;exitDx=0;exitDy=0;entryX=0;entryY=0.5;entryDx=0;entryDy=0;edgeStyle=orthogonalEdgeStyle;" edge="1" parent="1" source="QBSZ2mpLJ4u34UwG9ziR-22" target="QBSZ2mpLJ4u34UwG9ziR-88">
          <mxGeometry width="50" height="50" relative="1" as="geometry">
            <mxPoint x="1060" y="660" as="sourcePoint" />
            <mxPoint x="1110" y="610" as="targetPoint" />
          </mxGeometry>
        </mxCell>
        <mxCell id="QBSZ2mpLJ4u34UwG9ziR-107" value="" style="endArrow=classic;html=1;rounded=0;exitX=1;exitY=0.5;exitDx=0;exitDy=0;entryX=0;entryY=0.5;entryDx=0;entryDy=0;edgeStyle=orthogonalEdgeStyle;" edge="1" parent="1" source="QBSZ2mpLJ4u34UwG9ziR-22" target="QBSZ2mpLJ4u34UwG9ziR-89">
          <mxGeometry width="50" height="50" relative="1" as="geometry">
            <mxPoint x="1060" y="660" as="sourcePoint" />
            <mxPoint x="1110" y="610" as="targetPoint" />
          </mxGeometry>
        </mxCell>
        <mxCell id="QBSZ2mpLJ4u34UwG9ziR-108" value="" style="endArrow=classic;html=1;rounded=0;exitX=1;exitY=0.5;exitDx=0;exitDy=0;entryX=0;entryY=0.5;entryDx=0;entryDy=0;edgeStyle=orthogonalEdgeStyle;" edge="1" parent="1" source="QBSZ2mpLJ4u34UwG9ziR-22" target="QBSZ2mpLJ4u34UwG9ziR-90">
          <mxGeometry width="50" height="50" relative="1" as="geometry">
            <mxPoint x="1060" y="660" as="sourcePoint" />
            <mxPoint x="1110" y="610" as="targetPoint" />
          </mxGeometry>
        </mxCell>
        <mxCell id="QBSZ2mpLJ4u34UwG9ziR-109" value="" style="endArrow=classic;html=1;rounded=0;exitX=1;exitY=0.5;exitDx=0;exitDy=0;entryX=0;entryY=0.5;entryDx=0;entryDy=0;edgeStyle=orthogonalEdgeStyle;" edge="1" parent="1" source="QBSZ2mpLJ4u34UwG9ziR-22" target="QBSZ2mpLJ4u34UwG9ziR-91">
          <mxGeometry width="50" height="50" relative="1" as="geometry">
            <mxPoint x="1060" y="660" as="sourcePoint" />
            <mxPoint x="1110" y="610" as="targetPoint" />
          </mxGeometry>
        </mxCell>
        <mxCell id="QBSZ2mpLJ4u34UwG9ziR-110" value="" style="endArrow=classic;html=1;rounded=0;exitX=1;exitY=0.5;exitDx=0;exitDy=0;entryX=0;entryY=0.5;entryDx=0;entryDy=0;edgeStyle=orthogonalEdgeStyle;" edge="1" parent="1" source="QBSZ2mpLJ4u34UwG9ziR-22" target="QBSZ2mpLJ4u34UwG9ziR-92">
          <mxGeometry width="50" height="50" relative="1" as="geometry">
            <mxPoint x="1060" y="750" as="sourcePoint" />
            <mxPoint x="1110" y="700" as="targetPoint" />
          </mxGeometry>
        </mxCell>
        <mxCell id="QBSZ2mpLJ4u34UwG9ziR-111" value="" style="endArrow=classic;html=1;rounded=0;exitX=1;exitY=0.5;exitDx=0;exitDy=0;entryX=0;entryY=0.5;entryDx=0;entryDy=0;edgeStyle=orthogonalEdgeStyle;" edge="1" parent="1" source="QBSZ2mpLJ4u34UwG9ziR-22" target="QBSZ2mpLJ4u34UwG9ziR-93">
          <mxGeometry width="50" height="50" relative="1" as="geometry">
            <mxPoint x="1060" y="750" as="sourcePoint" />
            <mxPoint x="1110" y="700" as="targetPoint" />
          </mxGeometry>
        </mxCell>
        <mxCell id="QBSZ2mpLJ4u34UwG9ziR-112" value="" style="endArrow=classic;html=1;rounded=0;exitX=1;exitY=0.5;exitDx=0;exitDy=0;entryX=0;entryY=0.5;entryDx=0;entryDy=0;edgeStyle=orthogonalEdgeStyle;" edge="1" parent="1" source="QBSZ2mpLJ4u34UwG9ziR-22" target="QBSZ2mpLJ4u34UwG9ziR-94">
          <mxGeometry width="50" height="50" relative="1" as="geometry">
            <mxPoint x="1060" y="660" as="sourcePoint" />
            <mxPoint x="1110" y="610" as="targetPoint" />
          </mxGeometry>
        </mxCell>
        <mxCell id="QBSZ2mpLJ4u34UwG9ziR-113" value="" style="endArrow=classic;html=1;rounded=0;exitX=1;exitY=0.5;exitDx=0;exitDy=0;entryX=0;entryY=0.5;entryDx=0;entryDy=0;edgeStyle=orthogonalEdgeStyle;" edge="1" parent="1" source="QBSZ2mpLJ4u34UwG9ziR-22" target="QBSZ2mpLJ4u34UwG9ziR-95">
          <mxGeometry width="50" height="50" relative="1" as="geometry">
            <mxPoint x="1060" y="940" as="sourcePoint" />
            <mxPoint x="1110" y="890" as="targetPoint" />
          </mxGeometry>
        </mxCell>
        <mxCell id="QBSZ2mpLJ4u34UwG9ziR-114" value="" style="endArrow=classic;html=1;rounded=0;exitX=1;exitY=0.5;exitDx=0;exitDy=0;entryX=0;entryY=0.5;entryDx=0;entryDy=0;edgeStyle=orthogonalEdgeStyle;" edge="1" parent="1" source="QBSZ2mpLJ4u34UwG9ziR-22" target="QBSZ2mpLJ4u34UwG9ziR-96">
          <mxGeometry width="50" height="50" relative="1" as="geometry">
            <mxPoint x="1060" y="1040" as="sourcePoint" />
            <mxPoint x="1110" y="990" as="targetPoint" />
          </mxGeometry>
        </mxCell>
        <mxCell id="QBSZ2mpLJ4u34UwG9ziR-115" value="" style="endArrow=classic;html=1;rounded=0;exitX=1;exitY=0.5;exitDx=0;exitDy=0;entryX=0;entryY=0.5;entryDx=0;entryDy=0;edgeStyle=orthogonalEdgeStyle;" edge="1" parent="1" source="QBSZ2mpLJ4u34UwG9ziR-22" target="QBSZ2mpLJ4u34UwG9ziR-97">
          <mxGeometry width="50" height="50" relative="1" as="geometry">
            <mxPoint x="1060" y="1230" as="sourcePoint" />
            <mxPoint x="1110" y="1180" as="targetPoint" />
          </mxGeometry>
        </mxCell>
        <mxCell id="QBSZ2mpLJ4u34UwG9ziR-116" value="ChatBot.css" style="rounded=1;whiteSpace=wrap;html=1;fillColor=#fff2cc;strokeColor=#d6b656;fontStyle=1;fontFamily=Poppins;fontSource=https%3A%2F%2Ffonts.googleapis.com%2Fcss%3Ffamily%3DPoppins;" vertex="1" parent="1">
          <mxGeometry x="1323" y="-405" width="170" height="40" as="geometry" />
        </mxCell>
        <mxCell id="QBSZ2mpLJ4u34UwG9ziR-117" value="ChatBot.jsx" style="rounded=1;whiteSpace=wrap;html=1;fillColor=#fff2cc;strokeColor=#d6b656;fontStyle=1;fontFamily=Poppins;fontSource=https%3A%2F%2Ffonts.googleapis.com%2Fcss%3Ffamily%3DPoppins;" vertex="1" parent="1">
          <mxGeometry x="1323" y="-355" width="170" height="40" as="geometry" />
        </mxCell>
        <mxCell id="QBSZ2mpLJ4u34UwG9ziR-118" value="ContextMenu.css" style="rounded=1;whiteSpace=wrap;html=1;fillColor=#fff2cc;strokeColor=#d6b656;fontStyle=1;fontFamily=Poppins;fontSource=https%3A%2F%2Ffonts.googleapis.com%2Fcss%3Ffamily%3DPoppins;" vertex="1" parent="1">
          <mxGeometry x="1323" y="-305" width="170" height="40" as="geometry" />
        </mxCell>
        <mxCell id="QBSZ2mpLJ4u34UwG9ziR-119" value="ContextMenu.jsx" style="rounded=1;whiteSpace=wrap;html=1;fillColor=#fff2cc;strokeColor=#d6b656;fontStyle=1;fontFamily=Poppins;fontSource=https%3A%2F%2Ffonts.googleapis.com%2Fcss%3Ffamily%3DPoppins;" vertex="1" parent="1">
          <mxGeometry x="1323" y="-253" width="170" height="40" as="geometry" />
        </mxCell>
        <mxCell id="QBSZ2mpLJ4u34UwG9ziR-120" value="Layout.css" style="rounded=1;whiteSpace=wrap;html=1;fillColor=#fff2cc;strokeColor=#d6b656;fontStyle=1;fontFamily=Poppins;fontSource=https%3A%2F%2Ffonts.googleapis.com%2Fcss%3Ffamily%3DPoppins;" vertex="1" parent="1">
          <mxGeometry x="1323" y="-202" width="170" height="40" as="geometry" />
        </mxCell>
        <mxCell id="QBSZ2mpLJ4u34UwG9ziR-121" value="Layout.jsx" style="rounded=1;whiteSpace=wrap;html=1;fillColor=#fff2cc;strokeColor=#d6b656;fontStyle=1;fontFamily=Poppins;fontSource=https%3A%2F%2Ffonts.googleapis.com%2Fcss%3Ffamily%3DPoppins;" vertex="1" parent="1">
          <mxGeometry x="1323" y="-152" width="170" height="40" as="geometry" />
        </mxCell>
        <mxCell id="QBSZ2mpLJ4u34UwG9ziR-122" value="Toolbar.css" style="rounded=1;whiteSpace=wrap;html=1;fillColor=#fff2cc;strokeColor=#d6b656;fontStyle=1;fontFamily=Poppins;fontSource=https%3A%2F%2Ffonts.googleapis.com%2Fcss%3Ffamily%3DPoppins;" vertex="1" parent="1">
          <mxGeometry x="1323" y="-101" width="170" height="40" as="geometry" />
        </mxCell>
        <mxCell id="QBSZ2mpLJ4u34UwG9ziR-123" value="Toolbar.jsx" style="rounded=1;whiteSpace=wrap;html=1;fillColor=#fff2cc;strokeColor=#d6b656;fontStyle=1;fontFamily=Poppins;fontSource=https%3A%2F%2Ffonts.googleapis.com%2Fcss%3Ffamily%3DPoppins;" vertex="1" parent="1">
          <mxGeometry x="1323" y="-50" width="170" height="40" as="geometry" />
        </mxCell>
        <mxCell id="QBSZ2mpLJ4u34UwG9ziR-124" value="" style="endArrow=classic;html=1;rounded=0;entryX=0;entryY=0.5;entryDx=0;entryDy=0;exitX=1;exitY=0.5;exitDx=0;exitDy=0;edgeStyle=orthogonalEdgeStyle;" edge="1" parent="1" source="QBSZ2mpLJ4u34UwG9ziR-54" target="QBSZ2mpLJ4u34UwG9ziR-116">
          <mxGeometry width="50" height="50" relative="1" as="geometry">
            <mxPoint x="1060" y="-180" as="sourcePoint" />
            <mxPoint x="1110" y="-230" as="targetPoint" />
          </mxGeometry>
        </mxCell>
        <mxCell id="QBSZ2mpLJ4u34UwG9ziR-125" value="" style="endArrow=classic;html=1;rounded=0;entryX=0;entryY=0.5;entryDx=0;entryDy=0;exitX=1;exitY=0.5;exitDx=0;exitDy=0;edgeStyle=orthogonalEdgeStyle;" edge="1" parent="1" source="QBSZ2mpLJ4u34UwG9ziR-54" target="QBSZ2mpLJ4u34UwG9ziR-117">
          <mxGeometry width="50" height="50" relative="1" as="geometry">
            <mxPoint x="1060" y="-180" as="sourcePoint" />
            <mxPoint x="1110" y="-230" as="targetPoint" />
          </mxGeometry>
        </mxCell>
        <mxCell id="QBSZ2mpLJ4u34UwG9ziR-126" value="" style="endArrow=classic;html=1;rounded=0;entryX=0;entryY=0.5;entryDx=0;entryDy=0;exitX=1;exitY=0.5;exitDx=0;exitDy=0;" edge="1" parent="1" source="QBSZ2mpLJ4u34UwG9ziR-55" target="QBSZ2mpLJ4u34UwG9ziR-118">
          <mxGeometry width="50" height="50" relative="1" as="geometry">
            <mxPoint x="1060" y="-180" as="sourcePoint" />
            <mxPoint x="1110" y="-230" as="targetPoint" />
          </mxGeometry>
        </mxCell>
        <mxCell id="QBSZ2mpLJ4u34UwG9ziR-127" value="" style="endArrow=classic;html=1;rounded=0;entryX=0;entryY=0.5;entryDx=0;entryDy=0;exitX=1;exitY=0.5;exitDx=0;exitDy=0;" edge="1" parent="1" source="QBSZ2mpLJ4u34UwG9ziR-55" target="QBSZ2mpLJ4u34UwG9ziR-119">
          <mxGeometry width="50" height="50" relative="1" as="geometry">
            <mxPoint x="1200" y="-190" as="sourcePoint" />
            <mxPoint x="1250" y="-240" as="targetPoint" />
          </mxGeometry>
        </mxCell>
        <mxCell id="QBSZ2mpLJ4u34UwG9ziR-128" value="" style="endArrow=classic;html=1;rounded=0;entryX=0;entryY=0.5;entryDx=0;entryDy=0;exitX=1;exitY=0.5;exitDx=0;exitDy=0;" edge="1" parent="1" source="QBSZ2mpLJ4u34UwG9ziR-56" target="QBSZ2mpLJ4u34UwG9ziR-120">
          <mxGeometry width="50" height="50" relative="1" as="geometry">
            <mxPoint x="1200" y="-200" as="sourcePoint" />
            <mxPoint x="1110" y="-230" as="targetPoint" />
          </mxGeometry>
        </mxCell>
        <mxCell id="QBSZ2mpLJ4u34UwG9ziR-129" value="" style="endArrow=classic;html=1;rounded=0;entryX=0;entryY=0.5;entryDx=0;entryDy=0;exitX=1;exitY=0.5;exitDx=0;exitDy=0;" edge="1" parent="1" source="QBSZ2mpLJ4u34UwG9ziR-56" target="QBSZ2mpLJ4u34UwG9ziR-121">
          <mxGeometry width="50" height="50" relative="1" as="geometry">
            <mxPoint x="1060" y="-180" as="sourcePoint" />
            <mxPoint x="1110" y="-230" as="targetPoint" />
          </mxGeometry>
        </mxCell>
        <mxCell id="QBSZ2mpLJ4u34UwG9ziR-130" value="" style="endArrow=classic;html=1;rounded=0;entryX=0;entryY=0.5;entryDx=0;entryDy=0;exitX=1;exitY=0.5;exitDx=0;exitDy=0;edgeStyle=orthogonalEdgeStyle;" edge="1" parent="1" source="QBSZ2mpLJ4u34UwG9ziR-57" target="QBSZ2mpLJ4u34UwG9ziR-122">
          <mxGeometry width="50" height="50" relative="1" as="geometry">
            <mxPoint x="1060" y="-180" as="sourcePoint" />
            <mxPoint x="1110" y="-230" as="targetPoint" />
          </mxGeometry>
        </mxCell>
        <mxCell id="QBSZ2mpLJ4u34UwG9ziR-131" value="" style="endArrow=classic;html=1;rounded=0;entryX=0;entryY=0.5;entryDx=0;entryDy=0;exitX=1;exitY=0.5;exitDx=0;exitDy=0;edgeStyle=orthogonalEdgeStyle;" edge="1" parent="1" source="QBSZ2mpLJ4u34UwG9ziR-57" target="QBSZ2mpLJ4u34UwG9ziR-123">
          <mxGeometry width="50" height="50" relative="1" as="geometry">
            <mxPoint x="1060" y="-180" as="sourcePoint" />
            <mxPoint x="1110" y="-230" as="targetPoint" />
          </mxGeometry>
        </mxCell>
        <mxCell id="QBSZ2mpLJ4u34UwG9ziR-132" value="Administration.css" style="rounded=1;whiteSpace=wrap;html=1;fillColor=#fff2cc;strokeColor=#d6b656;fontStyle=1;fontFamily=Poppins;fontSource=https%3A%2F%2Ffonts.googleapis.com%2Fcss%3Ffamily%3DPoppins;" vertex="1" parent="1">
          <mxGeometry x="1323" y="2" width="170" height="40" as="geometry" />
        </mxCell>
        <mxCell id="QBSZ2mpLJ4u34UwG9ziR-133" value="Administration.jsx" style="rounded=1;whiteSpace=wrap;html=1;fillColor=#fff2cc;strokeColor=#d6b656;fontStyle=1;fontFamily=Poppins;fontSource=https%3A%2F%2Ffonts.googleapis.com%2Fcss%3Ffamily%3DPoppins;" vertex="1" parent="1">
          <mxGeometry x="1323" y="53" width="170" height="40" as="geometry" />
        </mxCell>
        <mxCell id="QBSZ2mpLJ4u34UwG9ziR-134" value="cabinetsDetail" style="rounded=1;whiteSpace=wrap;html=1;fontFamily=Poppins;fontSource=https%3A%2F%2Ffonts.googleapis.com%2Fcss%3Ffamily%3DPoppins;fontStyle=1;fontSize=12;fillColor=#b1ddf0;strokeColor=#10739e;" vertex="1" parent="1">
          <mxGeometry x="1323" y="104" width="170" height="40" as="geometry" />
        </mxCell>
        <mxCell id="QBSZ2mpLJ4u34UwG9ziR-135" value="cabinetsHead" style="rounded=1;whiteSpace=wrap;html=1;fontFamily=Poppins;fontSource=https%3A%2F%2Ffonts.googleapis.com%2Fcss%3Ffamily%3DPoppins;fontStyle=1;fontSize=12;fillColor=#b1ddf0;strokeColor=#10739e;" vertex="1" parent="1">
          <mxGeometry x="1323" y="155" width="170" height="40" as="geometry" />
        </mxCell>
        <mxCell id="QBSZ2mpLJ4u34UwG9ziR-136" value="control" style="rounded=1;whiteSpace=wrap;html=1;fontFamily=Poppins;fontSource=https%3A%2F%2Ffonts.googleapis.com%2Fcss%3Ffamily%3DPoppins;fontStyle=1;fontSize=12;fillColor=#b1ddf0;strokeColor=#10739e;" vertex="1" parent="1">
          <mxGeometry x="1323" y="206" width="170" height="40" as="geometry" />
        </mxCell>
        <mxCell id="QBSZ2mpLJ4u34UwG9ziR-137" value="distributions" style="rounded=1;whiteSpace=wrap;html=1;fontFamily=Poppins;fontSource=https%3A%2F%2Ffonts.googleapis.com%2Fcss%3Ffamily%3DPoppins;fontStyle=1;fontSize=12;fillColor=#b1ddf0;strokeColor=#10739e;" vertex="1" parent="1">
          <mxGeometry x="1323" y="257" width="170" height="40" as="geometry" />
        </mxCell>
        <mxCell id="QBSZ2mpLJ4u34UwG9ziR-138" value="power" style="rounded=1;whiteSpace=wrap;html=1;fontFamily=Poppins;fontSource=https%3A%2F%2Ffonts.googleapis.com%2Fcss%3Ffamily%3DPoppins;fontStyle=1;fontSize=12;fillColor=#b1ddf0;strokeColor=#10739e;" vertex="1" parent="1">
          <mxGeometry x="1323" y="309" width="170" height="40" as="geometry" />
        </mxCell>
        <mxCell id="QBSZ2mpLJ4u34UwG9ziR-139" value="citiesDetail" style="rounded=1;whiteSpace=wrap;html=1;fontFamily=Poppins;fontSource=https%3A%2F%2Ffonts.googleapis.com%2Fcss%3Ffamily%3DPoppins;fontStyle=1;fontSize=12;fillColor=#b1ddf0;strokeColor=#10739e;" vertex="1" parent="1">
          <mxGeometry x="1323" y="361" width="170" height="40" as="geometry" />
        </mxCell>
        <mxCell id="QBSZ2mpLJ4u34UwG9ziR-140" value="citiesHead" style="rounded=1;whiteSpace=wrap;html=1;fontFamily=Poppins;fontSource=https%3A%2F%2Ffonts.googleapis.com%2Fcss%3Ffamily%3DPoppins;fontStyle=1;fontSize=12;fillColor=#b1ddf0;strokeColor=#10739e;" vertex="1" parent="1">
          <mxGeometry x="1323" y="412" width="170" height="40" as="geometry" />
        </mxCell>
        <mxCell id="QBSZ2mpLJ4u34UwG9ziR-141" value="controllersDetail" style="rounded=1;whiteSpace=wrap;html=1;fontFamily=Poppins;fontSource=https%3A%2F%2Ffonts.googleapis.com%2Fcss%3Ffamily%3DPoppins;fontStyle=1;fontSize=12;fillColor=#b1ddf0;strokeColor=#10739e;" vertex="1" parent="1">
          <mxGeometry x="1323" y="465.5" width="170" height="40" as="geometry" />
        </mxCell>
        <mxCell id="QBSZ2mpLJ4u34UwG9ziR-142" value="controllersHead" style="rounded=1;whiteSpace=wrap;html=1;fontFamily=Poppins;fontSource=https%3A%2F%2Ffonts.googleapis.com%2Fcss%3Ffamily%3DPoppins;fontStyle=1;fontSize=12;fillColor=#b1ddf0;strokeColor=#10739e;" vertex="1" parent="1">
          <mxGeometry x="1323" y="516.5" width="170" height="40" as="geometry" />
        </mxCell>
        <mxCell id="QBSZ2mpLJ4u34UwG9ziR-143" value="DataBase.css" style="rounded=1;whiteSpace=wrap;html=1;fillColor=#fff2cc;strokeColor=#d6b656;fontStyle=1;fontFamily=Poppins;fontSource=https%3A%2F%2Ffonts.googleapis.com%2Fcss%3Ffamily%3DPoppins;" vertex="1" parent="1">
          <mxGeometry x="1323" y="570" width="170" height="40" as="geometry" />
        </mxCell>
        <mxCell id="QBSZ2mpLJ4u34UwG9ziR-144" value="DataBase.jsx" style="rounded=1;whiteSpace=wrap;html=1;fillColor=#fff2cc;strokeColor=#d6b656;fontStyle=1;fontFamily=Poppins;fontSource=https%3A%2F%2Ffonts.googleapis.com%2Fcss%3Ffamily%3DPoppins;" vertex="1" parent="1">
          <mxGeometry x="1323" y="622" width="170" height="40" as="geometry" />
        </mxCell>
        <mxCell id="QBSZ2mpLJ4u34UwG9ziR-145" value="domainsDetail" style="rounded=1;whiteSpace=wrap;html=1;fontFamily=Poppins;fontSource=https%3A%2F%2Ffonts.googleapis.com%2Fcss%3Ffamily%3DPoppins;fontStyle=1;fontSize=12;fillColor=#b1ddf0;strokeColor=#10739e;" vertex="1" parent="1">
          <mxGeometry x="1323" y="674" width="170" height="40" as="geometry" />
        </mxCell>
        <mxCell id="QBSZ2mpLJ4u34UwG9ziR-146" value="domainsHead" style="rounded=1;whiteSpace=wrap;html=1;fontFamily=Poppins;fontSource=https%3A%2F%2Ffonts.googleapis.com%2Fcss%3Ffamily%3DPoppins;fontStyle=1;fontSize=12;fillColor=#b1ddf0;strokeColor=#10739e;" vertex="1" parent="1">
          <mxGeometry x="1323" y="725" width="170" height="40" as="geometry" />
        </mxCell>
        <mxCell id="QBSZ2mpLJ4u34UwG9ziR-147" value="codeGenerator" style="rounded=1;whiteSpace=wrap;html=1;fontFamily=Poppins;fontSource=https%3A%2F%2Ffonts.googleapis.com%2Fcss%3Ffamily%3DPoppins;fontStyle=1;fontSize=12;fillColor=#b1ddf0;strokeColor=#10739e;" vertex="1" parent="1">
          <mxGeometry x="1323" y="776" width="170" height="40" as="geometry" />
        </mxCell>
        <mxCell id="QBSZ2mpLJ4u34UwG9ziR-149" value="Login.css" style="rounded=1;whiteSpace=wrap;html=1;fillColor=#fff2cc;strokeColor=#d6b656;fontStyle=1;fontFamily=Poppins;fontSource=https%3A%2F%2Ffonts.googleapis.com%2Fcss%3Ffamily%3DPoppins;" vertex="1" parent="1">
          <mxGeometry x="1323" y="829.5" width="170" height="40" as="geometry" />
        </mxCell>
        <mxCell id="QBSZ2mpLJ4u34UwG9ziR-150" value="Login.jsx" style="rounded=1;whiteSpace=wrap;html=1;fillColor=#fff2cc;strokeColor=#d6b656;fontStyle=1;fontFamily=Poppins;fontSource=https%3A%2F%2Ffonts.googleapis.com%2Fcss%3Ffamily%3DPoppins;" vertex="1" parent="1">
          <mxGeometry x="1323" y="880.5" width="170" height="40" as="geometry" />
        </mxCell>
        <mxCell id="QBSZ2mpLJ4u34UwG9ziR-151" value="Profile.css" style="rounded=1;whiteSpace=wrap;html=1;fillColor=#fff2cc;strokeColor=#d6b656;fontStyle=1;fontFamily=Poppins;fontSource=https%3A%2F%2Ffonts.googleapis.com%2Fcss%3Ffamily%3DPoppins;" vertex="1" parent="1">
          <mxGeometry x="1323" y="933" width="170" height="40" as="geometry" />
        </mxCell>
        <mxCell id="QBSZ2mpLJ4u34UwG9ziR-152" value="Profile.jsx" style="rounded=1;whiteSpace=wrap;html=1;fillColor=#fff2cc;strokeColor=#d6b656;fontStyle=1;fontFamily=Poppins;fontSource=https%3A%2F%2Ffonts.googleapis.com%2Fcss%3Ffamily%3DPoppins;" vertex="1" parent="1">
          <mxGeometry x="1323" y="984" width="170" height="40" as="geometry" />
        </mxCell>
        <mxCell id="QBSZ2mpLJ4u34UwG9ziR-153" value="programmingDetail" style="rounded=1;whiteSpace=wrap;html=1;fontFamily=Poppins;fontSource=https%3A%2F%2Ffonts.googleapis.com%2Fcss%3Ffamily%3DPoppins;fontStyle=1;fontSize=12;fillColor=#b1ddf0;strokeColor=#10739e;" vertex="1" parent="1">
          <mxGeometry x="1323" y="1035" width="170" height="40" as="geometry" />
        </mxCell>
        <mxCell id="QBSZ2mpLJ4u34UwG9ziR-154" value="programminHead" style="rounded=1;whiteSpace=wrap;html=1;fontFamily=Poppins;fontSource=https%3A%2F%2Ffonts.googleapis.com%2Fcss%3Ffamily%3DPoppins;fontStyle=1;fontSize=12;fillColor=#b1ddf0;strokeColor=#10739e;" vertex="1" parent="1">
          <mxGeometry x="1323" y="1086" width="170" height="40" as="geometry" />
        </mxCell>
        <mxCell id="QBSZ2mpLJ4u34UwG9ziR-155" value="projectsDetail" style="rounded=1;whiteSpace=wrap;html=1;fontFamily=Poppins;fontSource=https%3A%2F%2Ffonts.googleapis.com%2Fcss%3Ffamily%3DPoppins;fontStyle=1;fontSize=12;fillColor=#b1ddf0;strokeColor=#10739e;" vertex="1" parent="1">
          <mxGeometry x="1323" y="1138" width="170" height="40" as="geometry" />
        </mxCell>
        <mxCell id="QBSZ2mpLJ4u34UwG9ziR-156" value="projectsHead" style="rounded=1;whiteSpace=wrap;html=1;fontFamily=Poppins;fontSource=https%3A%2F%2Ffonts.googleapis.com%2Fcss%3Ffamily%3DPoppins;fontStyle=1;fontSize=12;fillColor=#b1ddf0;strokeColor=#10739e;" vertex="1" parent="1">
          <mxGeometry x="1323" y="1189" width="170" height="40" as="geometry" />
        </mxCell>
        <mxCell id="QBSZ2mpLJ4u34UwG9ziR-157" value="Registration.css" style="rounded=1;whiteSpace=wrap;html=1;fillColor=#fff2cc;strokeColor=#d6b656;fontStyle=1;fontFamily=Poppins;fontSource=https%3A%2F%2Ffonts.googleapis.com%2Fcss%3Ffamily%3DPoppins;" vertex="1" parent="1">
          <mxGeometry x="1323" y="1240.5" width="170" height="40" as="geometry" />
        </mxCell>
        <mxCell id="QBSZ2mpLJ4u34UwG9ziR-158" value="Registration.jsx" style="rounded=1;whiteSpace=wrap;html=1;fillColor=#fff2cc;strokeColor=#d6b656;fontStyle=1;fontFamily=Poppins;fontSource=https%3A%2F%2Ffonts.googleapis.com%2Fcss%3Ffamily%3DPoppins;" vertex="1" parent="1">
          <mxGeometry x="1323" y="1291.5" width="170" height="40" as="geometry" />
        </mxCell>
        <mxCell id="QBSZ2mpLJ4u34UwG9ziR-159" value="rolesDetail" style="rounded=1;whiteSpace=wrap;html=1;fontFamily=Poppins;fontSource=https%3A%2F%2Ffonts.googleapis.com%2Fcss%3Ffamily%3DPoppins;fontStyle=1;fontSize=12;fillColor=#b1ddf0;strokeColor=#10739e;" vertex="1" parent="1">
          <mxGeometry x="1323" y="1343" width="170" height="40" as="geometry" />
        </mxCell>
        <mxCell id="QBSZ2mpLJ4u34UwG9ziR-160" value="rolesHead" style="rounded=1;whiteSpace=wrap;html=1;fontFamily=Poppins;fontSource=https%3A%2F%2Ffonts.googleapis.com%2Fcss%3Ffamily%3DPoppins;fontStyle=1;fontSize=12;fillColor=#b1ddf0;strokeColor=#10739e;" vertex="1" parent="1">
          <mxGeometry x="1323" y="1394" width="170" height="40" as="geometry" />
        </mxCell>
        <mxCell id="QBSZ2mpLJ4u34UwG9ziR-161" value="routersDetail" style="rounded=1;whiteSpace=wrap;html=1;fontFamily=Poppins;fontSource=https%3A%2F%2Ffonts.googleapis.com%2Fcss%3Ffamily%3DPoppins;fontStyle=1;fontSize=12;fillColor=#b1ddf0;strokeColor=#10739e;" vertex="1" parent="1">
          <mxGeometry x="1323" y="1446" width="170" height="40" as="geometry" />
        </mxCell>
        <mxCell id="QBSZ2mpLJ4u34UwG9ziR-162" value="routersHead" style="rounded=1;whiteSpace=wrap;html=1;fontFamily=Poppins;fontSource=https%3A%2F%2Ffonts.googleapis.com%2Fcss%3Ffamily%3DPoppins;fontStyle=1;fontSize=12;fillColor=#b1ddf0;strokeColor=#10739e;" vertex="1" parent="1">
          <mxGeometry x="1323" y="1497" width="170" height="40" as="geometry" />
        </mxCell>
        <mxCell id="QBSZ2mpLJ4u34UwG9ziR-163" value="Tokens.css" style="rounded=1;whiteSpace=wrap;html=1;fillColor=#fff2cc;strokeColor=#d6b656;fontStyle=1;fontFamily=Poppins;fontSource=https%3A%2F%2Ffonts.googleapis.com%2Fcss%3Ffamily%3DPoppins;" vertex="1" parent="1">
          <mxGeometry x="1323" y="1550" width="170" height="40" as="geometry" />
        </mxCell>
        <mxCell id="QBSZ2mpLJ4u34UwG9ziR-164" value="Tokens.jsx" style="rounded=1;whiteSpace=wrap;html=1;fillColor=#fff2cc;strokeColor=#d6b656;fontStyle=1;fontFamily=Poppins;fontSource=https%3A%2F%2Ffonts.googleapis.com%2Fcss%3Ffamily%3DPoppins;" vertex="1" parent="1">
          <mxGeometry x="1323" y="1601" width="170" height="40" as="geometry" />
        </mxCell>
        <mxCell id="QBSZ2mpLJ4u34UwG9ziR-165" value="usersDetail" style="rounded=1;whiteSpace=wrap;html=1;fontFamily=Poppins;fontSource=https%3A%2F%2Ffonts.googleapis.com%2Fcss%3Ffamily%3DPoppins;fontStyle=1;fontSize=12;fillColor=#b1ddf0;strokeColor=#10739e;" vertex="1" parent="1">
          <mxGeometry x="1323" y="1652" width="170" height="40" as="geometry" />
        </mxCell>
        <mxCell id="QBSZ2mpLJ4u34UwG9ziR-166" value="usersHead" style="rounded=1;whiteSpace=wrap;html=1;fontFamily=Poppins;fontSource=https%3A%2F%2Ffonts.googleapis.com%2Fcss%3Ffamily%3DPoppins;fontStyle=1;fontSize=12;fillColor=#b1ddf0;strokeColor=#10739e;" vertex="1" parent="1">
          <mxGeometry x="1323" y="1703" width="170" height="40" as="geometry" />
        </mxCell>
        <mxCell id="QBSZ2mpLJ4u34UwG9ziR-167" value="versionCentral" style="rounded=1;whiteSpace=wrap;html=1;fontFamily=Poppins;fontSource=https%3A%2F%2Ffonts.googleapis.com%2Fcss%3Ffamily%3DPoppins;fontStyle=1;fontSize=12;fillColor=#b1ddf0;strokeColor=#10739e;" vertex="1" parent="1">
          <mxGeometry x="1323" y="1754" width="170" height="40" as="geometry" />
        </mxCell>
        <mxCell id="QBSZ2mpLJ4u34UwG9ziR-168" value="versionFirmware" style="rounded=1;whiteSpace=wrap;html=1;fontFamily=Poppins;fontSource=https%3A%2F%2Ffonts.googleapis.com%2Fcss%3Ffamily%3DPoppins;fontStyle=1;fontSize=12;fillColor=#b1ddf0;strokeColor=#10739e;" vertex="1" parent="1">
          <mxGeometry x="1323" y="1805" width="170" height="40" as="geometry" />
        </mxCell>
        <mxCell id="QBSZ2mpLJ4u34UwG9ziR-169" value="versionLocal" style="rounded=1;whiteSpace=wrap;html=1;fontFamily=Poppins;fontSource=https%3A%2F%2Ffonts.googleapis.com%2Fcss%3Ffamily%3DPoppins;fontStyle=1;fontSize=12;fillColor=#b1ddf0;strokeColor=#10739e;" vertex="1" parent="1">
          <mxGeometry x="1323" y="1857" width="170" height="40" as="geometry" />
        </mxCell>
        <mxCell id="QBSZ2mpLJ4u34UwG9ziR-170" value="versionManual" style="rounded=1;whiteSpace=wrap;html=1;fontFamily=Poppins;fontSource=https%3A%2F%2Ffonts.googleapis.com%2Fcss%3Ffamily%3DPoppins;fontStyle=1;fontSize=12;fillColor=#b1ddf0;strokeColor=#10739e;" vertex="1" parent="1">
          <mxGeometry x="1323" y="1908" width="170" height="40" as="geometry" />
        </mxCell>
        <mxCell id="QBSZ2mpLJ4u34UwG9ziR-171" value="versionSimu" style="rounded=1;whiteSpace=wrap;html=1;fontFamily=Poppins;fontSource=https%3A%2F%2Ffonts.googleapis.com%2Fcss%3Ffamily%3DPoppins;fontStyle=1;fontSize=12;fillColor=#b1ddf0;strokeColor=#10739e;" vertex="1" parent="1">
          <mxGeometry x="1323" y="1960" width="170" height="40" as="geometry" />
        </mxCell>
        <mxCell id="QBSZ2mpLJ4u34UwG9ziR-172" value="" style="endArrow=classic;html=1;rounded=0;exitX=1;exitY=0.5;exitDx=0;exitDy=0;entryX=0;entryY=0.5;entryDx=0;entryDy=0;edgeStyle=elbowEdgeStyle;" edge="1" parent="1" source="QBSZ2mpLJ4u34UwG9ziR-80" target="QBSZ2mpLJ4u34UwG9ziR-132">
          <mxGeometry width="50" height="50" relative="1" as="geometry">
            <mxPoint x="1370" y="290" as="sourcePoint" />
            <mxPoint x="1420" y="240" as="targetPoint" />
            <Array as="points">
              <mxPoint x="1200" y="200" />
            </Array>
          </mxGeometry>
        </mxCell>
        <mxCell id="QBSZ2mpLJ4u34UwG9ziR-173" value="" style="endArrow=classic;html=1;rounded=0;exitX=1;exitY=0.5;exitDx=0;exitDy=0;entryX=0;entryY=0.5;entryDx=0;entryDy=0;edgeStyle=elbowEdgeStyle;" edge="1" parent="1" source="QBSZ2mpLJ4u34UwG9ziR-80" target="QBSZ2mpLJ4u34UwG9ziR-133">
          <mxGeometry width="50" height="50" relative="1" as="geometry">
            <mxPoint x="1370" y="210" as="sourcePoint" />
            <mxPoint x="1420" y="160" as="targetPoint" />
            <Array as="points">
              <mxPoint x="1200" y="230" />
            </Array>
          </mxGeometry>
        </mxCell>
        <mxCell id="QBSZ2mpLJ4u34UwG9ziR-174" value="" style="endArrow=classic;html=1;rounded=0;exitX=1;exitY=0.5;exitDx=0;exitDy=0;entryX=0;entryY=0.5;entryDx=0;entryDy=0;edgeStyle=elbowEdgeStyle;" edge="1" parent="1" source="QBSZ2mpLJ4u34UwG9ziR-81" target="QBSZ2mpLJ4u34UwG9ziR-134">
          <mxGeometry width="50" height="50" relative="1" as="geometry">
            <mxPoint x="1370" y="290" as="sourcePoint" />
            <mxPoint x="1420" y="240" as="targetPoint" />
            <Array as="points">
              <mxPoint x="1210" y="280" />
            </Array>
          </mxGeometry>
        </mxCell>
        <mxCell id="QBSZ2mpLJ4u34UwG9ziR-175" value="" style="endArrow=classic;html=1;rounded=0;exitX=1;exitY=0.5;exitDx=0;exitDy=0;entryX=0;entryY=0.5;entryDx=0;entryDy=0;edgeStyle=elbowEdgeStyle;" edge="1" parent="1" source="QBSZ2mpLJ4u34UwG9ziR-81" target="QBSZ2mpLJ4u34UwG9ziR-135">
          <mxGeometry width="50" height="50" relative="1" as="geometry">
            <mxPoint x="1370" y="290" as="sourcePoint" />
            <mxPoint x="1420" y="240" as="targetPoint" />
            <Array as="points">
              <mxPoint x="1210" y="310" />
            </Array>
          </mxGeometry>
        </mxCell>
        <mxCell id="QBSZ2mpLJ4u34UwG9ziR-176" value="" style="endArrow=classic;html=1;rounded=0;exitX=1;exitY=0.5;exitDx=0;exitDy=0;entryX=0;entryY=0.5;entryDx=0;entryDy=0;edgeStyle=elbowEdgeStyle;" edge="1" parent="1" source="QBSZ2mpLJ4u34UwG9ziR-82" target="QBSZ2mpLJ4u34UwG9ziR-136">
          <mxGeometry width="50" height="50" relative="1" as="geometry">
            <mxPoint x="1370" y="370" as="sourcePoint" />
            <mxPoint x="1420" y="320" as="targetPoint" />
            <Array as="points">
              <mxPoint x="1220" y="360" />
            </Array>
          </mxGeometry>
        </mxCell>
        <mxCell id="QBSZ2mpLJ4u34UwG9ziR-177" value="" style="endArrow=classic;html=1;rounded=0;exitX=1;exitY=0.5;exitDx=0;exitDy=0;entryX=0;entryY=0.5;entryDx=0;entryDy=0;edgeStyle=orthogonalEdgeStyle;" edge="1" parent="1" source="QBSZ2mpLJ4u34UwG9ziR-82" target="QBSZ2mpLJ4u34UwG9ziR-137">
          <mxGeometry width="50" height="50" relative="1" as="geometry">
            <mxPoint x="1370" y="370" as="sourcePoint" />
            <mxPoint x="1420" y="320" as="targetPoint" />
            <Array as="points">
              <mxPoint x="1220" y="486" />
              <mxPoint x="1220" y="277" />
            </Array>
          </mxGeometry>
        </mxCell>
        <mxCell id="QBSZ2mpLJ4u34UwG9ziR-178" value="" style="endArrow=classic;html=1;rounded=0;exitX=1;exitY=0.5;exitDx=0;exitDy=0;entryX=0;entryY=0.5;entryDx=0;entryDy=0;edgeStyle=elbowEdgeStyle;" edge="1" parent="1" source="QBSZ2mpLJ4u34UwG9ziR-82" target="QBSZ2mpLJ4u34UwG9ziR-138">
          <mxGeometry width="50" height="50" relative="1" as="geometry">
            <mxPoint x="1370" y="370" as="sourcePoint" />
            <mxPoint x="1420" y="320" as="targetPoint" />
            <Array as="points">
              <mxPoint x="1220" y="410" />
            </Array>
          </mxGeometry>
        </mxCell>
        <mxCell id="QBSZ2mpLJ4u34UwG9ziR-179" value="" style="endArrow=classic;html=1;rounded=0;exitX=1;exitY=0.5;exitDx=0;exitDy=0;entryX=0;entryY=0.5;entryDx=0;entryDy=0;edgeStyle=elbowEdgeStyle;" edge="1" parent="1" source="QBSZ2mpLJ4u34UwG9ziR-83" target="QBSZ2mpLJ4u34UwG9ziR-139">
          <mxGeometry width="50" height="50" relative="1" as="geometry">
            <mxPoint x="1370" y="450" as="sourcePoint" />
            <mxPoint x="1420" y="400" as="targetPoint" />
            <Array as="points">
              <mxPoint x="1230" y="460" />
            </Array>
          </mxGeometry>
        </mxCell>
        <mxCell id="QBSZ2mpLJ4u34UwG9ziR-180" value="" style="endArrow=classic;html=1;rounded=0;exitX=1;exitY=0.5;exitDx=0;exitDy=0;entryX=0;entryY=0.5;entryDx=0;entryDy=0;edgeStyle=elbowEdgeStyle;" edge="1" parent="1" source="QBSZ2mpLJ4u34UwG9ziR-83" target="QBSZ2mpLJ4u34UwG9ziR-140">
          <mxGeometry width="50" height="50" relative="1" as="geometry">
            <mxPoint x="1370" y="520" as="sourcePoint" />
            <mxPoint x="1420" y="470" as="targetPoint" />
            <Array as="points">
              <mxPoint x="1230" y="490" />
            </Array>
          </mxGeometry>
        </mxCell>
        <mxCell id="QBSZ2mpLJ4u34UwG9ziR-181" value="" style="endArrow=classic;html=1;rounded=0;exitX=1;exitY=0.5;exitDx=0;exitDy=0;entryX=0;entryY=0.5;entryDx=0;entryDy=0;edgeStyle=elbowEdgeStyle;" edge="1" parent="1" source="QBSZ2mpLJ4u34UwG9ziR-84" target="QBSZ2mpLJ4u34UwG9ziR-141">
          <mxGeometry width="50" height="50" relative="1" as="geometry">
            <mxPoint x="1370" y="520" as="sourcePoint" />
            <mxPoint x="1420" y="470" as="targetPoint" />
            <Array as="points">
              <mxPoint x="1240" y="540" />
            </Array>
          </mxGeometry>
        </mxCell>
        <mxCell id="QBSZ2mpLJ4u34UwG9ziR-182" value="" style="endArrow=classic;html=1;rounded=0;exitX=1;exitY=0.5;exitDx=0;exitDy=0;entryX=0;entryY=0.5;entryDx=0;entryDy=0;edgeStyle=elbowEdgeStyle;" edge="1" parent="1" source="QBSZ2mpLJ4u34UwG9ziR-84" target="QBSZ2mpLJ4u34UwG9ziR-142">
          <mxGeometry width="50" height="50" relative="1" as="geometry">
            <mxPoint x="1370" y="520" as="sourcePoint" />
            <mxPoint x="1420" y="470" as="targetPoint" />
            <Array as="points">
              <mxPoint x="1240" y="560" />
            </Array>
          </mxGeometry>
        </mxCell>
        <mxCell id="QBSZ2mpLJ4u34UwG9ziR-183" value="" style="endArrow=classic;html=1;rounded=0;exitX=1;exitY=0.5;exitDx=0;exitDy=0;entryX=0;entryY=0.5;entryDx=0;entryDy=0;" edge="1" parent="1" source="QBSZ2mpLJ4u34UwG9ziR-85" target="QBSZ2mpLJ4u34UwG9ziR-143">
          <mxGeometry width="50" height="50" relative="1" as="geometry">
            <mxPoint x="1370" y="520" as="sourcePoint" />
            <mxPoint x="1420" y="470" as="targetPoint" />
          </mxGeometry>
        </mxCell>
        <mxCell id="QBSZ2mpLJ4u34UwG9ziR-184" value="" style="endArrow=classic;html=1;rounded=0;exitX=1;exitY=0.5;exitDx=0;exitDy=0;" edge="1" parent="1" source="QBSZ2mpLJ4u34UwG9ziR-85" target="QBSZ2mpLJ4u34UwG9ziR-144">
          <mxGeometry width="50" height="50" relative="1" as="geometry">
            <mxPoint x="1370" y="580" as="sourcePoint" />
            <mxPoint x="1420" y="530" as="targetPoint" />
          </mxGeometry>
        </mxCell>
        <mxCell id="QBSZ2mpLJ4u34UwG9ziR-185" value="" style="endArrow=classic;html=1;rounded=0;exitX=1;exitY=0.5;exitDx=0;exitDy=0;" edge="1" parent="1" source="QBSZ2mpLJ4u34UwG9ziR-86" target="QBSZ2mpLJ4u34UwG9ziR-145">
          <mxGeometry width="50" height="50" relative="1" as="geometry">
            <mxPoint x="1370" y="720" as="sourcePoint" />
            <mxPoint x="1420" y="670" as="targetPoint" />
          </mxGeometry>
        </mxCell>
        <mxCell id="QBSZ2mpLJ4u34UwG9ziR-186" value="" style="endArrow=classic;html=1;rounded=0;exitX=1;exitY=0.5;exitDx=0;exitDy=0;entryX=0;entryY=0.5;entryDx=0;entryDy=0;" edge="1" parent="1" source="QBSZ2mpLJ4u34UwG9ziR-86" target="QBSZ2mpLJ4u34UwG9ziR-146">
          <mxGeometry width="50" height="50" relative="1" as="geometry">
            <mxPoint x="1370" y="720" as="sourcePoint" />
            <mxPoint x="1420" y="670" as="targetPoint" />
          </mxGeometry>
        </mxCell>
        <mxCell id="QBSZ2mpLJ4u34UwG9ziR-187" value="" style="endArrow=classic;html=1;rounded=0;exitX=1;exitY=0.5;exitDx=0;exitDy=0;entryX=0;entryY=0.5;entryDx=0;entryDy=0;edgeStyle=elbowEdgeStyle;" edge="1" parent="1" source="QBSZ2mpLJ4u34UwG9ziR-87" target="QBSZ2mpLJ4u34UwG9ziR-147">
          <mxGeometry width="50" height="50" relative="1" as="geometry">
            <mxPoint x="1370" y="850" as="sourcePoint" />
            <mxPoint x="1420" y="800" as="targetPoint" />
            <Array as="points">
              <mxPoint x="1300" y="770" />
            </Array>
          </mxGeometry>
        </mxCell>
        <mxCell id="QBSZ2mpLJ4u34UwG9ziR-188" value="" style="endArrow=classic;html=1;rounded=0;exitX=1;exitY=0.5;exitDx=0;exitDy=0;entryX=0;entryY=0.5;entryDx=0;entryDy=0;edgeStyle=elbowEdgeStyle;" edge="1" parent="1" source="QBSZ2mpLJ4u34UwG9ziR-88" target="QBSZ2mpLJ4u34UwG9ziR-149">
          <mxGeometry width="50" height="50" relative="1" as="geometry">
            <mxPoint x="1370" y="850" as="sourcePoint" />
            <mxPoint x="1420" y="800" as="targetPoint" />
            <Array as="points">
              <mxPoint x="1290" y="820" />
            </Array>
          </mxGeometry>
        </mxCell>
        <mxCell id="QBSZ2mpLJ4u34UwG9ziR-189" value="" style="endArrow=classic;html=1;rounded=0;exitX=1;exitY=0.5;exitDx=0;exitDy=0;entryX=0;entryY=0.5;entryDx=0;entryDy=0;edgeStyle=elbowEdgeStyle;" edge="1" parent="1" source="QBSZ2mpLJ4u34UwG9ziR-88" target="QBSZ2mpLJ4u34UwG9ziR-150">
          <mxGeometry width="50" height="50" relative="1" as="geometry">
            <mxPoint x="1370" y="910" as="sourcePoint" />
            <mxPoint x="1420" y="860" as="targetPoint" />
            <Array as="points">
              <mxPoint x="1290" y="850" />
            </Array>
          </mxGeometry>
        </mxCell>
        <mxCell id="QBSZ2mpLJ4u34UwG9ziR-190" value="" style="endArrow=classic;html=1;rounded=0;exitX=1;exitY=0.5;exitDx=0;exitDy=0;entryX=0;entryY=0.5;entryDx=0;entryDy=0;edgeStyle=elbowEdgeStyle;" edge="1" parent="1" source="QBSZ2mpLJ4u34UwG9ziR-89" target="QBSZ2mpLJ4u34UwG9ziR-151">
          <mxGeometry width="50" height="50" relative="1" as="geometry">
            <mxPoint x="1370" y="910" as="sourcePoint" />
            <mxPoint x="1420" y="860" as="targetPoint" />
            <Array as="points">
              <mxPoint x="1280" y="900" />
            </Array>
          </mxGeometry>
        </mxCell>
        <mxCell id="QBSZ2mpLJ4u34UwG9ziR-191" value="" style="endArrow=classic;html=1;rounded=0;exitX=1;exitY=0.5;exitDx=0;exitDy=0;entryX=0;entryY=0.5;entryDx=0;entryDy=0;edgeStyle=elbowEdgeStyle;" edge="1" parent="1" source="QBSZ2mpLJ4u34UwG9ziR-89" target="QBSZ2mpLJ4u34UwG9ziR-152">
          <mxGeometry width="50" height="50" relative="1" as="geometry">
            <mxPoint x="1370" y="910" as="sourcePoint" />
            <mxPoint x="1420" y="860" as="targetPoint" />
            <Array as="points">
              <mxPoint x="1280" y="930" />
            </Array>
          </mxGeometry>
        </mxCell>
        <mxCell id="QBSZ2mpLJ4u34UwG9ziR-192" value="" style="endArrow=classic;html=1;rounded=0;exitX=1;exitY=0.5;exitDx=0;exitDy=0;entryX=0;entryY=0.5;entryDx=0;entryDy=0;edgeStyle=elbowEdgeStyle;" edge="1" parent="1" source="QBSZ2mpLJ4u34UwG9ziR-90" target="QBSZ2mpLJ4u34UwG9ziR-153">
          <mxGeometry width="50" height="50" relative="1" as="geometry">
            <mxPoint x="1370" y="980" as="sourcePoint" />
            <mxPoint x="1420" y="930" as="targetPoint" />
            <Array as="points">
              <mxPoint x="1270" y="980" />
            </Array>
          </mxGeometry>
        </mxCell>
        <mxCell id="QBSZ2mpLJ4u34UwG9ziR-193" value="" style="endArrow=classic;html=1;rounded=0;exitX=1;exitY=0.5;exitDx=0;exitDy=0;entryX=0;entryY=0.5;entryDx=0;entryDy=0;edgeStyle=elbowEdgeStyle;" edge="1" parent="1" source="QBSZ2mpLJ4u34UwG9ziR-90" target="QBSZ2mpLJ4u34UwG9ziR-154">
          <mxGeometry width="50" height="50" relative="1" as="geometry">
            <mxPoint x="1370" y="1050" as="sourcePoint" />
            <mxPoint x="1420" y="1000" as="targetPoint" />
            <Array as="points">
              <mxPoint x="1270" y="1010" />
            </Array>
          </mxGeometry>
        </mxCell>
        <mxCell id="QBSZ2mpLJ4u34UwG9ziR-194" value="" style="endArrow=classic;html=1;rounded=0;exitX=1;exitY=0.5;exitDx=0;exitDy=0;entryX=0;entryY=0.5;entryDx=0;entryDy=0;edgeStyle=elbowEdgeStyle;" edge="1" parent="1" source="QBSZ2mpLJ4u34UwG9ziR-91" target="QBSZ2mpLJ4u34UwG9ziR-155">
          <mxGeometry width="50" height="50" relative="1" as="geometry">
            <mxPoint x="1370" y="1050" as="sourcePoint" />
            <mxPoint x="1420" y="1000" as="targetPoint" />
            <Array as="points">
              <mxPoint x="1260" y="1060" />
            </Array>
          </mxGeometry>
        </mxCell>
        <mxCell id="QBSZ2mpLJ4u34UwG9ziR-195" value="" style="endArrow=classic;html=1;rounded=0;exitX=1;exitY=0.5;exitDx=0;exitDy=0;entryX=0;entryY=0.5;entryDx=0;entryDy=0;edgeStyle=elbowEdgeStyle;" edge="1" parent="1" source="QBSZ2mpLJ4u34UwG9ziR-91" target="QBSZ2mpLJ4u34UwG9ziR-156">
          <mxGeometry width="50" height="50" relative="1" as="geometry">
            <mxPoint x="1370" y="1050" as="sourcePoint" />
            <mxPoint x="1420" y="1000" as="targetPoint" />
            <Array as="points">
              <mxPoint x="1260" y="1080" />
            </Array>
          </mxGeometry>
        </mxCell>
        <mxCell id="QBSZ2mpLJ4u34UwG9ziR-196" value="" style="endArrow=classic;html=1;rounded=0;exitX=1;exitY=0.5;exitDx=0;exitDy=0;entryX=0;entryY=0.5;entryDx=0;entryDy=0;edgeStyle=elbowEdgeStyle;" edge="1" parent="1" source="QBSZ2mpLJ4u34UwG9ziR-92" target="QBSZ2mpLJ4u34UwG9ziR-157">
          <mxGeometry width="50" height="50" relative="1" as="geometry">
            <mxPoint x="1370" y="1180" as="sourcePoint" />
            <mxPoint x="1420" y="1130" as="targetPoint" />
            <Array as="points">
              <mxPoint x="1250" y="1140" />
            </Array>
          </mxGeometry>
        </mxCell>
        <mxCell id="QBSZ2mpLJ4u34UwG9ziR-197" value="" style="endArrow=classic;html=1;rounded=0;exitX=1;exitY=0.5;exitDx=0;exitDy=0;entryX=0;entryY=0.5;entryDx=0;entryDy=0;edgeStyle=elbowEdgeStyle;" edge="1" parent="1" source="QBSZ2mpLJ4u34UwG9ziR-92" target="QBSZ2mpLJ4u34UwG9ziR-158">
          <mxGeometry width="50" height="50" relative="1" as="geometry">
            <mxPoint x="1370" y="1180" as="sourcePoint" />
            <mxPoint x="1420" y="1130" as="targetPoint" />
            <Array as="points">
              <mxPoint x="1250" y="1160" />
            </Array>
          </mxGeometry>
        </mxCell>
        <mxCell id="QBSZ2mpLJ4u34UwG9ziR-198" value="" style="endArrow=classic;html=1;rounded=0;exitX=1;exitY=0.5;exitDx=0;exitDy=0;entryX=0;entryY=0.5;entryDx=0;entryDy=0;edgeStyle=elbowEdgeStyle;" edge="1" parent="1" source="QBSZ2mpLJ4u34UwG9ziR-93" target="QBSZ2mpLJ4u34UwG9ziR-159">
          <mxGeometry width="50" height="50" relative="1" as="geometry">
            <mxPoint x="1370" y="1190" as="sourcePoint" />
            <mxPoint x="1420" y="1140" as="targetPoint" />
            <Array as="points">
              <mxPoint x="1240" y="1220" />
            </Array>
          </mxGeometry>
        </mxCell>
        <mxCell id="QBSZ2mpLJ4u34UwG9ziR-199" value="" style="endArrow=classic;html=1;rounded=0;exitX=1;exitY=0.5;exitDx=0;exitDy=0;entryX=0;entryY=0.5;entryDx=0;entryDy=0;edgeStyle=elbowEdgeStyle;" edge="1" parent="1" source="QBSZ2mpLJ4u34UwG9ziR-93" target="QBSZ2mpLJ4u34UwG9ziR-160">
          <mxGeometry width="50" height="50" relative="1" as="geometry">
            <mxPoint x="1370" y="1250" as="sourcePoint" />
            <mxPoint x="1420" y="1200" as="targetPoint" />
            <Array as="points">
              <mxPoint x="1240" y="1240" />
            </Array>
          </mxGeometry>
        </mxCell>
        <mxCell id="QBSZ2mpLJ4u34UwG9ziR-200" value="" style="endArrow=classic;html=1;rounded=0;exitX=1;exitY=0.5;exitDx=0;exitDy=0;entryX=0;entryY=0.5;entryDx=0;entryDy=0;edgeStyle=elbowEdgeStyle;" edge="1" parent="1" source="QBSZ2mpLJ4u34UwG9ziR-94" target="QBSZ2mpLJ4u34UwG9ziR-161">
          <mxGeometry width="50" height="50" relative="1" as="geometry">
            <mxPoint x="1370" y="1250" as="sourcePoint" />
            <mxPoint x="1420" y="1200" as="targetPoint" />
            <Array as="points">
              <mxPoint x="1230" y="1290" />
            </Array>
          </mxGeometry>
        </mxCell>
        <mxCell id="QBSZ2mpLJ4u34UwG9ziR-201" value="" style="endArrow=classic;html=1;rounded=0;exitX=1;exitY=0.5;exitDx=0;exitDy=0;entryX=0;entryY=0.5;entryDx=0;entryDy=0;edgeStyle=elbowEdgeStyle;" edge="1" parent="1" source="QBSZ2mpLJ4u34UwG9ziR-94" target="QBSZ2mpLJ4u34UwG9ziR-162">
          <mxGeometry width="50" height="50" relative="1" as="geometry">
            <mxPoint x="1370" y="1320" as="sourcePoint" />
            <mxPoint x="1420" y="1270" as="targetPoint" />
            <Array as="points">
              <mxPoint x="1230" y="1320" />
            </Array>
          </mxGeometry>
        </mxCell>
        <mxCell id="QBSZ2mpLJ4u34UwG9ziR-202" value="" style="endArrow=classic;html=1;rounded=0;exitX=1;exitY=0.5;exitDx=0;exitDy=0;entryX=0;entryY=0.5;entryDx=0;entryDy=0;edgeStyle=elbowEdgeStyle;" edge="1" parent="1" source="QBSZ2mpLJ4u34UwG9ziR-95" target="QBSZ2mpLJ4u34UwG9ziR-163">
          <mxGeometry width="50" height="50" relative="1" as="geometry">
            <mxPoint x="1370" y="1320" as="sourcePoint" />
            <mxPoint x="1420" y="1270" as="targetPoint" />
            <Array as="points">
              <mxPoint x="1220" y="1370" />
            </Array>
          </mxGeometry>
        </mxCell>
        <mxCell id="QBSZ2mpLJ4u34UwG9ziR-203" value="" style="endArrow=classic;html=1;rounded=0;exitX=1;exitY=0.5;exitDx=0;exitDy=0;entryX=0;entryY=0.5;entryDx=0;entryDy=0;edgeStyle=elbowEdgeStyle;" edge="1" parent="1" source="QBSZ2mpLJ4u34UwG9ziR-95" target="QBSZ2mpLJ4u34UwG9ziR-164">
          <mxGeometry width="50" height="50" relative="1" as="geometry">
            <mxPoint x="1370" y="1390" as="sourcePoint" />
            <mxPoint x="1420" y="1340" as="targetPoint" />
            <Array as="points">
              <mxPoint x="1220" y="1400" />
            </Array>
          </mxGeometry>
        </mxCell>
        <mxCell id="QBSZ2mpLJ4u34UwG9ziR-204" value="" style="endArrow=classic;html=1;rounded=0;exitX=1;exitY=0.5;exitDx=0;exitDy=0;entryX=0;entryY=0.5;entryDx=0;entryDy=0;edgeStyle=elbowEdgeStyle;" edge="1" parent="1" source="QBSZ2mpLJ4u34UwG9ziR-96" target="QBSZ2mpLJ4u34UwG9ziR-165">
          <mxGeometry width="50" height="50" relative="1" as="geometry">
            <mxPoint x="1370" y="1390" as="sourcePoint" />
            <mxPoint x="1420" y="1340" as="targetPoint" />
            <Array as="points">
              <mxPoint x="1210" y="1460" />
            </Array>
          </mxGeometry>
        </mxCell>
        <mxCell id="QBSZ2mpLJ4u34UwG9ziR-205" value="" style="endArrow=classic;html=1;rounded=0;exitX=1;exitY=0.5;exitDx=0;exitDy=0;entryX=0;entryY=0.5;entryDx=0;entryDy=0;edgeStyle=elbowEdgeStyle;" edge="1" parent="1" source="QBSZ2mpLJ4u34UwG9ziR-96" target="QBSZ2mpLJ4u34UwG9ziR-166">
          <mxGeometry width="50" height="50" relative="1" as="geometry">
            <mxPoint x="1370" y="1390" as="sourcePoint" />
            <mxPoint x="1420" y="1340" as="targetPoint" />
            <Array as="points">
              <mxPoint x="1210" y="1480" />
            </Array>
          </mxGeometry>
        </mxCell>
        <mxCell id="QBSZ2mpLJ4u34UwG9ziR-206" value="" style="endArrow=classic;html=1;rounded=0;exitX=1;exitY=0.5;exitDx=0;exitDy=0;entryX=0;entryY=0.5;entryDx=0;entryDy=0;edgeStyle=elbowEdgeStyle;" edge="1" parent="1" source="QBSZ2mpLJ4u34UwG9ziR-97" target="QBSZ2mpLJ4u34UwG9ziR-167">
          <mxGeometry width="50" height="50" relative="1" as="geometry">
            <mxPoint x="1370" y="1390" as="sourcePoint" />
            <mxPoint x="1420" y="1340" as="targetPoint" />
            <Array as="points">
              <mxPoint x="1200" y="1530" />
            </Array>
          </mxGeometry>
        </mxCell>
        <mxCell id="QBSZ2mpLJ4u34UwG9ziR-207" value="" style="endArrow=classic;html=1;rounded=0;exitX=1;exitY=0.5;exitDx=0;exitDy=0;entryX=0;entryY=0.5;entryDx=0;entryDy=0;edgeStyle=orthogonalEdgeStyle;" edge="1" parent="1" source="QBSZ2mpLJ4u34UwG9ziR-97" target="QBSZ2mpLJ4u34UwG9ziR-168">
          <mxGeometry width="50" height="50" relative="1" as="geometry">
            <mxPoint x="1370" y="1610" as="sourcePoint" />
            <mxPoint x="1420" y="1560" as="targetPoint" />
            <Array as="points">
              <mxPoint x="1200" y="1281" />
              <mxPoint x="1200" y="1825" />
            </Array>
          </mxGeometry>
        </mxCell>
        <mxCell id="QBSZ2mpLJ4u34UwG9ziR-208" value="" style="endArrow=classic;html=1;rounded=0;exitX=1;exitY=0.5;exitDx=0;exitDy=0;entryX=0;entryY=0.5;entryDx=0;entryDy=0;edgeStyle=orthogonalEdgeStyle;" edge="1" parent="1" source="QBSZ2mpLJ4u34UwG9ziR-97" target="QBSZ2mpLJ4u34UwG9ziR-169">
          <mxGeometry width="50" height="50" relative="1" as="geometry">
            <mxPoint x="1370" y="1610" as="sourcePoint" />
            <mxPoint x="1420" y="1560" as="targetPoint" />
            <Array as="points">
              <mxPoint x="1200" y="1281" />
              <mxPoint x="1200" y="1877" />
            </Array>
          </mxGeometry>
        </mxCell>
        <mxCell id="QBSZ2mpLJ4u34UwG9ziR-209" value="" style="endArrow=classic;html=1;rounded=0;exitX=1;exitY=0.5;exitDx=0;exitDy=0;entryX=0;entryY=0.5;entryDx=0;entryDy=0;edgeStyle=elbowEdgeStyle;" edge="1" parent="1" source="QBSZ2mpLJ4u34UwG9ziR-97" target="QBSZ2mpLJ4u34UwG9ziR-170">
          <mxGeometry width="50" height="50" relative="1" as="geometry">
            <mxPoint x="1370" y="1610" as="sourcePoint" />
            <mxPoint x="1420" y="1560" as="targetPoint" />
            <Array as="points">
              <mxPoint x="1200" y="1610" />
            </Array>
          </mxGeometry>
        </mxCell>
        <mxCell id="QBSZ2mpLJ4u34UwG9ziR-210" value="" style="endArrow=classic;html=1;rounded=0;exitX=1;exitY=0.5;exitDx=0;exitDy=0;entryX=0;entryY=0.5;entryDx=0;entryDy=0;edgeStyle=elbowEdgeStyle;" edge="1" parent="1" source="QBSZ2mpLJ4u34UwG9ziR-97" target="QBSZ2mpLJ4u34UwG9ziR-171">
          <mxGeometry width="50" height="50" relative="1" as="geometry">
            <mxPoint x="1370" y="1390" as="sourcePoint" />
            <mxPoint x="1420" y="1340" as="targetPoint" />
            <Array as="points">
              <mxPoint x="1200" y="1630" />
            </Array>
          </mxGeometry>
        </mxCell>
        <mxCell id="QBSZ2mpLJ4u34UwG9ziR-211" value="dimensionCabinet" style="rounded=1;whiteSpace=wrap;html=1;fontFamily=Poppins;fontSource=https%3A%2F%2Ffonts.googleapis.com%2Fcss%3Ffamily%3DPoppins;fontStyle=1;fontSize=12;fillColor=#b1ddf0;strokeColor=#10739e;" vertex="1" parent="1">
          <mxGeometry x="1745" y="-603" width="170" height="40" as="geometry" />
        </mxCell>
        <mxCell id="QBSZ2mpLJ4u34UwG9ziR-212" value="versionCabinet" style="rounded=1;whiteSpace=wrap;html=1;fontFamily=Poppins;fontSource=https%3A%2F%2Ffonts.googleapis.com%2Fcss%3Ffamily%3DPoppins;fontStyle=1;fontSize=12;fillColor=#b1ddf0;strokeColor=#10739e;" vertex="1" parent="1">
          <mxGeometry x="1745" y="-552" width="170" height="40" as="geometry" />
        </mxCell>
        <mxCell id="QBSZ2mpLJ4u34UwG9ziR-213" value="CabinetsHead.css" style="rounded=1;whiteSpace=wrap;html=1;fillColor=#fff2cc;strokeColor=#d6b656;fontStyle=1;fontFamily=Poppins;fontSource=https%3A%2F%2Ffonts.googleapis.com%2Fcss%3Ffamily%3DPoppins;" vertex="1" parent="1">
          <mxGeometry x="1745" y="-500.5" width="170" height="40" as="geometry" />
        </mxCell>
        <mxCell id="QBSZ2mpLJ4u34UwG9ziR-214" value="CabinetsHead.jsx" style="rounded=1;whiteSpace=wrap;html=1;fillColor=#fff2cc;strokeColor=#d6b656;fontStyle=1;fontFamily=Poppins;fontSource=https%3A%2F%2Ffonts.googleapis.com%2Fcss%3Ffamily%3DPoppins;" vertex="1" parent="1">
          <mxGeometry x="1745" y="-449.5" width="170" height="40" as="geometry" />
        </mxCell>
        <mxCell id="QBSZ2mpLJ4u34UwG9ziR-215" value="controlDetail" style="rounded=1;whiteSpace=wrap;html=1;fontFamily=Poppins;fontSource=https%3A%2F%2Ffonts.googleapis.com%2Fcss%3Ffamily%3DPoppins;fontStyle=1;fontSize=12;fillColor=#b1ddf0;strokeColor=#10739e;" vertex="1" parent="1">
          <mxGeometry x="1745" y="-397" width="170" height="40" as="geometry" />
        </mxCell>
        <mxCell id="QBSZ2mpLJ4u34UwG9ziR-216" value="controlHead" style="rounded=1;whiteSpace=wrap;html=1;fontFamily=Poppins;fontSource=https%3A%2F%2Ffonts.googleapis.com%2Fcss%3Ffamily%3DPoppins;fontStyle=1;fontSize=12;fillColor=#b1ddf0;strokeColor=#10739e;" vertex="1" parent="1">
          <mxGeometry x="1745" y="-346" width="170" height="40" as="geometry" />
        </mxCell>
        <mxCell id="QBSZ2mpLJ4u34UwG9ziR-217" value="distributionsDetail" style="rounded=1;whiteSpace=wrap;html=1;fontFamily=Poppins;fontSource=https%3A%2F%2Ffonts.googleapis.com%2Fcss%3Ffamily%3DPoppins;fontStyle=1;fontSize=12;fillColor=#b1ddf0;strokeColor=#10739e;" vertex="1" parent="1">
          <mxGeometry x="1745" y="-293.5" width="170" height="40" as="geometry" />
        </mxCell>
        <mxCell id="QBSZ2mpLJ4u34UwG9ziR-218" value="distributionsHead" style="rounded=1;whiteSpace=wrap;html=1;fontFamily=Poppins;fontSource=https%3A%2F%2Ffonts.googleapis.com%2Fcss%3Ffamily%3DPoppins;fontStyle=1;fontSize=12;fillColor=#b1ddf0;strokeColor=#10739e;" vertex="1" parent="1">
          <mxGeometry x="1745" y="-242.5" width="170" height="40" as="geometry" />
        </mxCell>
        <mxCell id="QBSZ2mpLJ4u34UwG9ziR-219" value="powerDetail" style="rounded=1;whiteSpace=wrap;html=1;fontFamily=Poppins;fontSource=https%3A%2F%2Ffonts.googleapis.com%2Fcss%3Ffamily%3DPoppins;fontStyle=1;fontSize=12;fillColor=#b1ddf0;strokeColor=#10739e;" vertex="1" parent="1">
          <mxGeometry x="1745" y="-191" width="170" height="40" as="geometry" />
        </mxCell>
        <mxCell id="QBSZ2mpLJ4u34UwG9ziR-220" value="powerHead" style="rounded=1;whiteSpace=wrap;html=1;fontFamily=Poppins;fontSource=https%3A%2F%2Ffonts.googleapis.com%2Fcss%3Ffamily%3DPoppins;fontStyle=1;fontSize=12;fillColor=#b1ddf0;strokeColor=#10739e;" vertex="1" parent="1">
          <mxGeometry x="1745" y="-140" width="170" height="40" as="geometry" />
        </mxCell>
        <mxCell id="QBSZ2mpLJ4u34UwG9ziR-221" value="versionCentralDetail" style="rounded=1;whiteSpace=wrap;html=1;fontFamily=Poppins;fontSource=https%3A%2F%2Ffonts.googleapis.com%2Fcss%3Ffamily%3DPoppins;fontStyle=1;fontSize=12;fillColor=#b1ddf0;strokeColor=#10739e;" vertex="1" parent="1">
          <mxGeometry x="1745" y="1668" width="170" height="40" as="geometry" />
        </mxCell>
        <mxCell id="QBSZ2mpLJ4u34UwG9ziR-222" value="versionCentralHead" style="rounded=1;whiteSpace=wrap;html=1;fontFamily=Poppins;fontSource=https%3A%2F%2Ffonts.googleapis.com%2Fcss%3Ffamily%3DPoppins;fontStyle=1;fontSize=12;fillColor=#b1ddf0;strokeColor=#10739e;" vertex="1" parent="1">
          <mxGeometry x="1745" y="1719" width="170" height="40" as="geometry" />
        </mxCell>
        <mxCell id="QBSZ2mpLJ4u34UwG9ziR-223" value="CitiesDetail.css" style="rounded=1;whiteSpace=wrap;html=1;fillColor=#fff2cc;strokeColor=#d6b656;fontStyle=1;fontFamily=Poppins;fontSource=https%3A%2F%2Ffonts.googleapis.com%2Fcss%3Ffamily%3DPoppins;" vertex="1" parent="1">
          <mxGeometry x="1745" y="-88.5" width="170" height="40" as="geometry" />
        </mxCell>
        <mxCell id="QBSZ2mpLJ4u34UwG9ziR-224" value="CitiesDetail.jsx" style="rounded=1;whiteSpace=wrap;html=1;fillColor=#fff2cc;strokeColor=#d6b656;fontStyle=1;fontFamily=Poppins;fontSource=https%3A%2F%2Ffonts.googleapis.com%2Fcss%3Ffamily%3DPoppins;" vertex="1" parent="1">
          <mxGeometry x="1745" y="-37.5" width="170" height="40" as="geometry" />
        </mxCell>
        <mxCell id="QBSZ2mpLJ4u34UwG9ziR-225" value="CitiesHead.css" style="rounded=1;whiteSpace=wrap;html=1;fillColor=#fff2cc;strokeColor=#d6b656;fontStyle=1;fontFamily=Poppins;fontSource=https%3A%2F%2Ffonts.googleapis.com%2Fcss%3Ffamily%3DPoppins;" vertex="1" parent="1">
          <mxGeometry x="1745" y="14.5" width="170" height="40" as="geometry" />
        </mxCell>
        <mxCell id="QBSZ2mpLJ4u34UwG9ziR-226" value="CitiesHead.jsx" style="rounded=1;whiteSpace=wrap;html=1;fillColor=#fff2cc;strokeColor=#d6b656;fontStyle=1;fontFamily=Poppins;fontSource=https%3A%2F%2Ffonts.googleapis.com%2Fcss%3Ffamily%3DPoppins;" vertex="1" parent="1">
          <mxGeometry x="1745" y="65.5" width="170" height="40" as="geometry" />
        </mxCell>
        <mxCell id="QBSZ2mpLJ4u34UwG9ziR-227" value="ControllersDetail.css" style="rounded=1;whiteSpace=wrap;html=1;fillColor=#fff2cc;strokeColor=#d6b656;fontStyle=1;fontFamily=Poppins;fontSource=https%3A%2F%2Ffonts.googleapis.com%2Fcss%3Ffamily%3DPoppins;" vertex="1" parent="1">
          <mxGeometry x="1745" y="118" width="170" height="40" as="geometry" />
        </mxCell>
        <mxCell id="QBSZ2mpLJ4u34UwG9ziR-228" value="ControllersDetail.jsx" style="rounded=1;whiteSpace=wrap;html=1;fillColor=#fff2cc;strokeColor=#d6b656;fontStyle=1;fontFamily=Poppins;fontSource=https%3A%2F%2Ffonts.googleapis.com%2Fcss%3Ffamily%3DPoppins;" vertex="1" parent="1">
          <mxGeometry x="1745" y="169" width="170" height="40" as="geometry" />
        </mxCell>
        <mxCell id="QBSZ2mpLJ4u34UwG9ziR-229" value="ControllersHead.css" style="rounded=1;whiteSpace=wrap;html=1;fillColor=#fff2cc;strokeColor=#d6b656;fontStyle=1;fontFamily=Poppins;fontSource=https%3A%2F%2Ffonts.googleapis.com%2Fcss%3Ffamily%3DPoppins;" vertex="1" parent="1">
          <mxGeometry x="1745" y="221" width="170" height="40" as="geometry" />
        </mxCell>
        <mxCell id="QBSZ2mpLJ4u34UwG9ziR-230" value="ControllersHead.jsx" style="rounded=1;whiteSpace=wrap;html=1;fillColor=#fff2cc;strokeColor=#d6b656;fontStyle=1;fontFamily=Poppins;fontSource=https%3A%2F%2Ffonts.googleapis.com%2Fcss%3Ffamily%3DPoppins;" vertex="1" parent="1">
          <mxGeometry x="1745" y="272" width="170" height="40" as="geometry" />
        </mxCell>
        <mxCell id="QBSZ2mpLJ4u34UwG9ziR-231" value="DomainsDetail.css" style="rounded=1;whiteSpace=wrap;html=1;fillColor=#fff2cc;strokeColor=#d6b656;fontStyle=1;fontFamily=Poppins;fontSource=https%3A%2F%2Ffonts.googleapis.com%2Fcss%3Ffamily%3DPoppins;" vertex="1" parent="1">
          <mxGeometry x="1745" y="323" width="170" height="40" as="geometry" />
        </mxCell>
        <mxCell id="QBSZ2mpLJ4u34UwG9ziR-232" value="DomainsDetail.jsx" style="rounded=1;whiteSpace=wrap;html=1;fillColor=#fff2cc;strokeColor=#d6b656;fontStyle=1;fontFamily=Poppins;fontSource=https%3A%2F%2Ffonts.googleapis.com%2Fcss%3Ffamily%3DPoppins;" vertex="1" parent="1">
          <mxGeometry x="1745" y="374" width="170" height="40" as="geometry" />
        </mxCell>
        <mxCell id="QBSZ2mpLJ4u34UwG9ziR-233" value="DomainsHead.css" style="rounded=1;whiteSpace=wrap;html=1;fillColor=#fff2cc;strokeColor=#d6b656;fontStyle=1;fontFamily=Poppins;fontSource=https%3A%2F%2Ffonts.googleapis.com%2Fcss%3Ffamily%3DPoppins;" vertex="1" parent="1">
          <mxGeometry x="1745" y="426" width="170" height="40" as="geometry" />
        </mxCell>
        <mxCell id="QBSZ2mpLJ4u34UwG9ziR-234" value="DomainsHead.jsx" style="rounded=1;whiteSpace=wrap;html=1;fillColor=#fff2cc;strokeColor=#d6b656;fontStyle=1;fontFamily=Poppins;fontSource=https%3A%2F%2Ffonts.googleapis.com%2Fcss%3Ffamily%3DPoppins;" vertex="1" parent="1">
          <mxGeometry x="1745" y="477" width="170" height="40" as="geometry" />
        </mxCell>
        <mxCell id="QBSZ2mpLJ4u34UwG9ziR-235" value="CodeGenerator.css" style="rounded=1;whiteSpace=wrap;html=1;fillColor=#fff2cc;strokeColor=#d6b656;fontStyle=1;fontFamily=Poppins;fontSource=https%3A%2F%2Ffonts.googleapis.com%2Fcss%3Ffamily%3DPoppins;" vertex="1" parent="1">
          <mxGeometry x="1745" y="529" width="170" height="40" as="geometry" />
        </mxCell>
        <mxCell id="QBSZ2mpLJ4u34UwG9ziR-236" value="CodeGenerator.jsx" style="rounded=1;whiteSpace=wrap;html=1;fillColor=#fff2cc;strokeColor=#d6b656;fontStyle=1;fontFamily=Poppins;fontSource=https%3A%2F%2Ffonts.googleapis.com%2Fcss%3Ffamily%3DPoppins;" vertex="1" parent="1">
          <mxGeometry x="1745" y="580" width="170" height="40" as="geometry" />
        </mxCell>
        <mxCell id="QBSZ2mpLJ4u34UwG9ziR-237" value="ProgrammingDetail.css" style="rounded=1;whiteSpace=wrap;html=1;fillColor=#fff2cc;strokeColor=#d6b656;fontStyle=1;fontFamily=Poppins;fontSource=https%3A%2F%2Ffonts.googleapis.com%2Fcss%3Ffamily%3DPoppins;" vertex="1" parent="1">
          <mxGeometry x="1745" y="632" width="170" height="40" as="geometry" />
        </mxCell>
        <mxCell id="QBSZ2mpLJ4u34UwG9ziR-238" value="ProgrammingDetail.jsx" style="rounded=1;whiteSpace=wrap;html=1;fillColor=#fff2cc;strokeColor=#d6b656;fontStyle=1;fontFamily=Poppins;fontSource=https%3A%2F%2Ffonts.googleapis.com%2Fcss%3Ffamily%3DPoppins;" vertex="1" parent="1">
          <mxGeometry x="1745" y="683" width="170" height="40" as="geometry" />
        </mxCell>
        <mxCell id="QBSZ2mpLJ4u34UwG9ziR-239" value="ProgrammingHead.css" style="rounded=1;whiteSpace=wrap;html=1;fillColor=#fff2cc;strokeColor=#d6b656;fontStyle=1;fontFamily=Poppins;fontSource=https%3A%2F%2Ffonts.googleapis.com%2Fcss%3Ffamily%3DPoppins;" vertex="1" parent="1">
          <mxGeometry x="1745" y="735" width="170" height="40" as="geometry" />
        </mxCell>
        <mxCell id="QBSZ2mpLJ4u34UwG9ziR-240" value="ProgrammingHead.jsx" style="rounded=1;whiteSpace=wrap;html=1;fillColor=#fff2cc;strokeColor=#d6b656;fontStyle=1;fontFamily=Poppins;fontSource=https%3A%2F%2Ffonts.googleapis.com%2Fcss%3Ffamily%3DPoppins;" vertex="1" parent="1">
          <mxGeometry x="1745" y="786" width="170" height="40" as="geometry" />
        </mxCell>
        <mxCell id="QBSZ2mpLJ4u34UwG9ziR-241" value="ProjectsDetail.css" style="rounded=1;whiteSpace=wrap;html=1;fillColor=#fff2cc;strokeColor=#d6b656;fontStyle=1;fontFamily=Poppins;fontSource=https%3A%2F%2Ffonts.googleapis.com%2Fcss%3Ffamily%3DPoppins;" vertex="1" parent="1">
          <mxGeometry x="1745" y="837" width="170" height="40" as="geometry" />
        </mxCell>
        <mxCell id="QBSZ2mpLJ4u34UwG9ziR-242" value="ProjectsDetail.jsx" style="rounded=1;whiteSpace=wrap;html=1;fillColor=#fff2cc;strokeColor=#d6b656;fontStyle=1;fontFamily=Poppins;fontSource=https%3A%2F%2Ffonts.googleapis.com%2Fcss%3Ffamily%3DPoppins;" vertex="1" parent="1">
          <mxGeometry x="1745" y="888" width="170" height="40" as="geometry" />
        </mxCell>
        <mxCell id="QBSZ2mpLJ4u34UwG9ziR-243" value="ProjectsHead.css" style="rounded=1;whiteSpace=wrap;html=1;fillColor=#fff2cc;strokeColor=#d6b656;fontStyle=1;fontFamily=Poppins;fontSource=https%3A%2F%2Ffonts.googleapis.com%2Fcss%3Ffamily%3DPoppins;" vertex="1" parent="1">
          <mxGeometry x="1745" y="940" width="170" height="40" as="geometry" />
        </mxCell>
        <mxCell id="QBSZ2mpLJ4u34UwG9ziR-244" value="ProjectsHead.jsx" style="rounded=1;whiteSpace=wrap;html=1;fillColor=#fff2cc;strokeColor=#d6b656;fontStyle=1;fontFamily=Poppins;fontSource=https%3A%2F%2Ffonts.googleapis.com%2Fcss%3Ffamily%3DPoppins;" vertex="1" parent="1">
          <mxGeometry x="1745" y="991" width="170" height="40" as="geometry" />
        </mxCell>
        <mxCell id="QBSZ2mpLJ4u34UwG9ziR-245" value="RolesDetail.css" style="rounded=1;whiteSpace=wrap;html=1;fillColor=#fff2cc;strokeColor=#d6b656;fontStyle=1;fontFamily=Poppins;fontSource=https%3A%2F%2Ffonts.googleapis.com%2Fcss%3Ffamily%3DPoppins;" vertex="1" parent="1">
          <mxGeometry x="1745" y="1044" width="170" height="40" as="geometry" />
        </mxCell>
        <mxCell id="QBSZ2mpLJ4u34UwG9ziR-246" value="RolesDetail.jsx" style="rounded=1;whiteSpace=wrap;html=1;fillColor=#fff2cc;strokeColor=#d6b656;fontStyle=1;fontFamily=Poppins;fontSource=https%3A%2F%2Ffonts.googleapis.com%2Fcss%3Ffamily%3DPoppins;" vertex="1" parent="1">
          <mxGeometry x="1745" y="1095" width="170" height="40" as="geometry" />
        </mxCell>
        <mxCell id="QBSZ2mpLJ4u34UwG9ziR-247" value="RolesHead.css" style="rounded=1;whiteSpace=wrap;html=1;fillColor=#fff2cc;strokeColor=#d6b656;fontStyle=1;fontFamily=Poppins;fontSource=https%3A%2F%2Ffonts.googleapis.com%2Fcss%3Ffamily%3DPoppins;" vertex="1" parent="1">
          <mxGeometry x="1745" y="1147" width="170" height="40" as="geometry" />
        </mxCell>
        <mxCell id="QBSZ2mpLJ4u34UwG9ziR-248" value="RolesHead.jsx" style="rounded=1;whiteSpace=wrap;html=1;fillColor=#fff2cc;strokeColor=#d6b656;fontStyle=1;fontFamily=Poppins;fontSource=https%3A%2F%2Ffonts.googleapis.com%2Fcss%3Ffamily%3DPoppins;" vertex="1" parent="1">
          <mxGeometry x="1745" y="1198" width="170" height="40" as="geometry" />
        </mxCell>
        <mxCell id="QBSZ2mpLJ4u34UwG9ziR-249" value="RoutersDetail.css" style="rounded=1;whiteSpace=wrap;html=1;fillColor=#fff2cc;strokeColor=#d6b656;fontStyle=1;fontFamily=Poppins;fontSource=https%3A%2F%2Ffonts.googleapis.com%2Fcss%3Ffamily%3DPoppins;" vertex="1" parent="1">
          <mxGeometry x="1745" y="1252" width="170" height="40" as="geometry" />
        </mxCell>
        <mxCell id="QBSZ2mpLJ4u34UwG9ziR-250" value="RoutersDetail.jsx" style="rounded=1;whiteSpace=wrap;html=1;fillColor=#fff2cc;strokeColor=#d6b656;fontStyle=1;fontFamily=Poppins;fontSource=https%3A%2F%2Ffonts.googleapis.com%2Fcss%3Ffamily%3DPoppins;" vertex="1" parent="1">
          <mxGeometry x="1745" y="1303" width="170" height="40" as="geometry" />
        </mxCell>
        <mxCell id="QBSZ2mpLJ4u34UwG9ziR-251" value="RoutersHead.css" style="rounded=1;whiteSpace=wrap;html=1;fillColor=#fff2cc;strokeColor=#d6b656;fontStyle=1;fontFamily=Poppins;fontSource=https%3A%2F%2Ffonts.googleapis.com%2Fcss%3Ffamily%3DPoppins;" vertex="1" parent="1">
          <mxGeometry x="1745" y="1355" width="170" height="40" as="geometry" />
        </mxCell>
        <mxCell id="QBSZ2mpLJ4u34UwG9ziR-252" value="RoutersHead.jsx" style="rounded=1;whiteSpace=wrap;html=1;fillColor=#fff2cc;strokeColor=#d6b656;fontStyle=1;fontFamily=Poppins;fontSource=https%3A%2F%2Ffonts.googleapis.com%2Fcss%3Ffamily%3DPoppins;" vertex="1" parent="1">
          <mxGeometry x="1745" y="1406" width="170" height="40" as="geometry" />
        </mxCell>
        <mxCell id="QBSZ2mpLJ4u34UwG9ziR-253" value="UsersDetail.css" style="rounded=1;whiteSpace=wrap;html=1;fillColor=#fff2cc;strokeColor=#d6b656;fontStyle=1;fontFamily=Poppins;fontSource=https%3A%2F%2Ffonts.googleapis.com%2Fcss%3Ffamily%3DPoppins;" vertex="1" parent="1">
          <mxGeometry x="1745" y="1460" width="170" height="40" as="geometry" />
        </mxCell>
        <mxCell id="QBSZ2mpLJ4u34UwG9ziR-254" value="UsersDetail.jsx" style="rounded=1;whiteSpace=wrap;html=1;fillColor=#fff2cc;strokeColor=#d6b656;fontStyle=1;fontFamily=Poppins;fontSource=https%3A%2F%2Ffonts.googleapis.com%2Fcss%3Ffamily%3DPoppins;" vertex="1" parent="1">
          <mxGeometry x="1745" y="1511" width="170" height="40" as="geometry" />
        </mxCell>
        <mxCell id="QBSZ2mpLJ4u34UwG9ziR-255" value="UsersHead.css" style="rounded=1;whiteSpace=wrap;html=1;fillColor=#fff2cc;strokeColor=#d6b656;fontStyle=1;fontFamily=Poppins;fontSource=https%3A%2F%2Ffonts.googleapis.com%2Fcss%3Ffamily%3DPoppins;" vertex="1" parent="1">
          <mxGeometry x="1745" y="1563" width="170" height="40" as="geometry" />
        </mxCell>
        <mxCell id="QBSZ2mpLJ4u34UwG9ziR-256" value="UsersHead.jsx" style="rounded=1;whiteSpace=wrap;html=1;fillColor=#fff2cc;strokeColor=#d6b656;fontStyle=1;fontFamily=Poppins;fontSource=https%3A%2F%2Ffonts.googleapis.com%2Fcss%3Ffamily%3DPoppins;" vertex="1" parent="1">
          <mxGeometry x="1745" y="1614" width="170" height="40" as="geometry" />
        </mxCell>
        <mxCell id="QBSZ2mpLJ4u34UwG9ziR-257" value="versionFirmwareDetail" style="rounded=1;whiteSpace=wrap;html=1;fontFamily=Poppins;fontSource=https%3A%2F%2Ffonts.googleapis.com%2Fcss%3Ffamily%3DPoppins;fontStyle=1;fontSize=12;fillColor=#b1ddf0;strokeColor=#10739e;" vertex="1" parent="1">
          <mxGeometry x="1745" y="1773" width="170" height="40" as="geometry" />
        </mxCell>
        <mxCell id="QBSZ2mpLJ4u34UwG9ziR-258" value="versionFirmwareHead" style="rounded=1;whiteSpace=wrap;html=1;fontFamily=Poppins;fontSource=https%3A%2F%2Ffonts.googleapis.com%2Fcss%3Ffamily%3DPoppins;fontStyle=1;fontSize=12;fillColor=#b1ddf0;strokeColor=#10739e;" vertex="1" parent="1">
          <mxGeometry x="1745" y="1824" width="170" height="40" as="geometry" />
        </mxCell>
        <mxCell id="QBSZ2mpLJ4u34UwG9ziR-259" value="versionLocalDetail" style="rounded=1;whiteSpace=wrap;html=1;fontFamily=Poppins;fontSource=https%3A%2F%2Ffonts.googleapis.com%2Fcss%3Ffamily%3DPoppins;fontStyle=1;fontSize=12;fillColor=#b1ddf0;strokeColor=#10739e;" vertex="1" parent="1">
          <mxGeometry x="1745" y="1878" width="170" height="40" as="geometry" />
        </mxCell>
        <mxCell id="QBSZ2mpLJ4u34UwG9ziR-260" value="versionLocalHead" style="rounded=1;whiteSpace=wrap;html=1;fontFamily=Poppins;fontSource=https%3A%2F%2Ffonts.googleapis.com%2Fcss%3Ffamily%3DPoppins;fontStyle=1;fontSize=12;fillColor=#b1ddf0;strokeColor=#10739e;" vertex="1" parent="1">
          <mxGeometry x="1745" y="1929" width="170" height="40" as="geometry" />
        </mxCell>
        <mxCell id="QBSZ2mpLJ4u34UwG9ziR-261" value="versionManualDetail" style="rounded=1;whiteSpace=wrap;html=1;fontFamily=Poppins;fontSource=https%3A%2F%2Ffonts.googleapis.com%2Fcss%3Ffamily%3DPoppins;fontStyle=1;fontSize=12;fillColor=#b1ddf0;strokeColor=#10739e;" vertex="1" parent="1">
          <mxGeometry x="1745" y="1983" width="170" height="40" as="geometry" />
        </mxCell>
        <mxCell id="QBSZ2mpLJ4u34UwG9ziR-262" value="versionManualHead" style="rounded=1;whiteSpace=wrap;html=1;fontFamily=Poppins;fontSource=https%3A%2F%2Ffonts.googleapis.com%2Fcss%3Ffamily%3DPoppins;fontStyle=1;fontSize=12;fillColor=#b1ddf0;strokeColor=#10739e;" vertex="1" parent="1">
          <mxGeometry x="1745" y="2034" width="170" height="40" as="geometry" />
        </mxCell>
        <mxCell id="QBSZ2mpLJ4u34UwG9ziR-263" value="versionSimuDetail" style="rounded=1;whiteSpace=wrap;html=1;fontFamily=Poppins;fontSource=https%3A%2F%2Ffonts.googleapis.com%2Fcss%3Ffamily%3DPoppins;fontStyle=1;fontSize=12;fillColor=#b1ddf0;strokeColor=#10739e;" vertex="1" parent="1">
          <mxGeometry x="1745" y="2087" width="170" height="40" as="geometry" />
        </mxCell>
        <mxCell id="QBSZ2mpLJ4u34UwG9ziR-264" value="versionSimuHead" style="rounded=1;whiteSpace=wrap;html=1;fontFamily=Poppins;fontSource=https%3A%2F%2Ffonts.googleapis.com%2Fcss%3Ffamily%3DPoppins;fontStyle=1;fontSize=12;fillColor=#b1ddf0;strokeColor=#10739e;" vertex="1" parent="1">
          <mxGeometry x="1745" y="2138" width="170" height="40" as="geometry" />
        </mxCell>
      </root>
    </mxGraphModel>
  </diagram>
</mxfile>
